<?xml version="1.0" encoding="utf-8" standalone="no"?>
<!DOCTYPE svg PUBLIC "-//W3C//DTD SVG 1.1//EN"
  "http://www.w3.org/Graphics/SVG/1.1/DTD/svg11.dtd">
<svg xmlns:xlink="http://www.w3.org/1999/xlink" width="784.439375pt" height="243.727813pt" viewBox="0 0 784.439375 243.727813" xmlns="http://www.w3.org/2000/svg" version="1.1">
 <metadata>
  <rdf:RDF xmlns:dc="http://purl.org/dc/elements/1.1/" xmlns:cc="http://creativecommons.org/ns#" xmlns:rdf="http://www.w3.org/1999/02/22-rdf-syntax-ns#">
   <cc:Work>
    <dc:type rdf:resource="http://purl.org/dc/dcmitype/StillImage"/>
    <dc:date>2026-05-11T05:57:41.471036</dc:date>
    <dc:format>image/svg+xml</dc:format>
    <dc:creator>
     <cc:Agent>
      <dc:title>Matplotlib v3.10.8, https://matplotlib.org/</dc:title>
     </cc:Agent>
    </dc:creator>
   </cc:Work>
  </rdf:RDF>
 </metadata>
 <defs>
  <style type="text/css">*{stroke-linejoin: round; stroke-linecap: butt}</style>
 </defs>
 <g id="figure_1">
  <g id="patch_1">
   <path d="M 0 243.727813 
L 784.439375 243.727813 
L 784.439375 0 
L 0 0 
z
" style="fill: #ffffff"/>
  </g>
  <g id="axes_1">
   <g id="patch_2">
    <path d="M 34.309375 206.118438 
L 777.239375 206.118438 
L 777.239375 20.798437 
L 34.309375 20.798437 
z
" style="fill: #ffffff"/>
   </g>
   <g id="matplotlib.axis_1">
    <g id="xtick_1">
     <g id="line2d_1">
      <path d="M 68.07892 206.118438 
L 68.07892 20.798437 
" clip-path="url(#p7655b6ac9c)" style="fill: none; stroke: #b0b0b0; stroke-opacity: 0.25; stroke-width: 0.8; stroke-linecap: square"/>
     </g>
     <g id="line2d_2">
      <defs>
       <path id="m27001e0b99" d="M 0 0 
L 0 3.5 
" style="stroke: #000000; stroke-width: 0.8"/>
      </defs>
      <g>
       <use xlink:href="#m27001e0b99" x="68.07892" y="206.118438" style="stroke: #000000; stroke-width: 0.8"/>
      </g>
     </g>
     <g id="text_1">
      <!-- 0 -->
      <g transform="translate(64.89767 220.716875) scale(0.1 -0.1)">
       <defs>
        <path id="DejaVuSans-30" d="M 2034 4250 
Q 1547 4250 1301 3770 
Q 1056 3291 1056 2328 
Q 1056 1369 1301 889 
Q 1547 409 2034 409 
Q 2525 409 2770 889 
Q 3016 1369 3016 2328 
Q 3016 3291 2770 3770 
Q 2525 4250 2034 4250 
z
M 2034 4750 
Q 2819 4750 3233 4129 
Q 3647 3509 3647 2328 
Q 3647 1150 3233 529 
Q 2819 -91 2034 -91 
Q 1250 -91 836 529 
Q 422 1150 422 2328 
Q 422 3509 836 4129 
Q 1250 4750 2034 4750 
z
" transform="scale(0.015625)"/>
       </defs>
       <use xlink:href="#DejaVuSans-30"/>
      </g>
     </g>
    </g>
    <g id="xtick_2">
     <g id="line2d_3">
      <path d="M 228.250678 206.118438 
L 228.250678 20.798437 
" clip-path="url(#p7655b6ac9c)" style="fill: none; stroke: #b0b0b0; stroke-opacity: 0.25; stroke-width: 0.8; stroke-linecap: square"/>
     </g>
     <g id="line2d_4">
      <g>
       <use xlink:href="#m27001e0b99" x="228.250678" y="206.118438" style="stroke: #000000; stroke-width: 0.8"/>
      </g>
     </g>
     <g id="text_2">
      <!-- 1 -->
      <g transform="translate(225.069428 220.716875) scale(0.1 -0.1)">
       <defs>
        <path id="DejaVuSans-31" d="M 794 531 
L 1825 531 
L 1825 4091 
L 703 3866 
L 703 4441 
L 1819 4666 
L 2450 4666 
L 2450 531 
L 3481 531 
L 3481 0 
L 794 0 
L 794 531 
z
" transform="scale(0.015625)"/>
       </defs>
       <use xlink:href="#DejaVuSans-31"/>
      </g>
     </g>
    </g>
    <g id="xtick_3">
     <g id="line2d_5">
      <path d="M 388.422435 206.118438 
L 388.422435 20.798437 
" clip-path="url(#p7655b6ac9c)" style="fill: none; stroke: #b0b0b0; stroke-opacity: 0.25; stroke-width: 0.8; stroke-linecap: square"/>
     </g>
     <g id="line2d_6">
      <g>
       <use xlink:href="#m27001e0b99" x="388.422435" y="206.118438" style="stroke: #000000; stroke-width: 0.8"/>
      </g>
     </g>
     <g id="text_3">
      <!-- 2 -->
      <g transform="translate(385.241185 220.716875) scale(0.1 -0.1)">
       <defs>
        <path id="DejaVuSans-32" d="M 1228 531 
L 3431 531 
L 3431 0 
L 469 0 
L 469 531 
Q 828 903 1448 1529 
Q 2069 2156 2228 2338 
Q 2531 2678 2651 2914 
Q 2772 3150 2772 3378 
Q 2772 3750 2511 3984 
Q 2250 4219 1831 4219 
Q 1534 4219 1204 4116 
Q 875 4013 500 3803 
L 500 4441 
Q 881 4594 1212 4672 
Q 1544 4750 1819 4750 
Q 2544 4750 2975 4387 
Q 3406 4025 3406 3419 
Q 3406 3131 3298 2873 
Q 3191 2616 2906 2266 
Q 2828 2175 2409 1742 
Q 1991 1309 1228 531 
z
" transform="scale(0.015625)"/>
       </defs>
       <use xlink:href="#DejaVuSans-32"/>
      </g>
     </g>
    </g>
    <g id="xtick_4">
     <g id="line2d_7">
      <path d="M 548.594192 206.118438 
L 548.594192 20.798437 
" clip-path="url(#p7655b6ac9c)" style="fill: none; stroke: #b0b0b0; stroke-opacity: 0.25; stroke-width: 0.8; stroke-linecap: square"/>
     </g>
     <g id="line2d_8">
      <g>
       <use xlink:href="#m27001e0b99" x="548.594192" y="206.118438" style="stroke: #000000; stroke-width: 0.8"/>
      </g>
     </g>
     <g id="text_4">
      <!-- 3 -->
      <g transform="translate(545.412942 220.716875) scale(0.1 -0.1)">
       <defs>
        <path id="DejaVuSans-33" d="M 2597 2516 
Q 3050 2419 3304 2112 
Q 3559 1806 3559 1356 
Q 3559 666 3084 287 
Q 2609 -91 1734 -91 
Q 1441 -91 1130 -33 
Q 819 25 488 141 
L 488 750 
Q 750 597 1062 519 
Q 1375 441 1716 441 
Q 2309 441 2620 675 
Q 2931 909 2931 1356 
Q 2931 1769 2642 2001 
Q 2353 2234 1838 2234 
L 1294 2234 
L 1294 2753 
L 1863 2753 
Q 2328 2753 2575 2939 
Q 2822 3125 2822 3475 
Q 2822 3834 2567 4026 
Q 2313 4219 1838 4219 
Q 1578 4219 1281 4162 
Q 984 4106 628 3988 
L 628 4550 
Q 988 4650 1302 4700 
Q 1616 4750 1894 4750 
Q 2613 4750 3031 4423 
Q 3450 4097 3450 3541 
Q 3450 3153 3228 2886 
Q 3006 2619 2597 2516 
z
" transform="scale(0.015625)"/>
       </defs>
       <use xlink:href="#DejaVuSans-33"/>
      </g>
     </g>
    </g>
    <g id="xtick_5">
     <g id="line2d_9">
      <path d="M 708.765949 206.118438 
L 708.765949 20.798437 
" clip-path="url(#p7655b6ac9c)" style="fill: none; stroke: #b0b0b0; stroke-opacity: 0.25; stroke-width: 0.8; stroke-linecap: square"/>
     </g>
     <g id="line2d_10">
      <g>
       <use xlink:href="#m27001e0b99" x="708.765949" y="206.118438" style="stroke: #000000; stroke-width: 0.8"/>
      </g>
     </g>
     <g id="text_5">
      <!-- 4 -->
      <g transform="translate(705.584699 220.716875) scale(0.1 -0.1)">
       <defs>
        <path id="DejaVuSans-34" d="M 2419 4116 
L 825 1625 
L 2419 1625 
L 2419 4116 
z
M 2253 4666 
L 3047 4666 
L 3047 1625 
L 3713 1625 
L 3713 1100 
L 3047 1100 
L 3047 0 
L 2419 0 
L 2419 1100 
L 313 1100 
L 313 1709 
L 2253 4666 
z
" transform="scale(0.015625)"/>
       </defs>
       <use xlink:href="#DejaVuSans-34"/>
      </g>
     </g>
    </g>
    <g id="text_6">
     <!-- simulated time (hours) -->
     <g transform="translate(339.550937 234.448125) scale(0.1 -0.1)">
      <defs>
       <path id="DejaVuSansMono-73" d="M 3041 3378 
L 3041 2816 
Q 2794 2959 2544 3031 
Q 2294 3103 2034 3103 
Q 1644 3103 1451 2976 
Q 1259 2850 1259 2591 
Q 1259 2356 1403 2240 
Q 1547 2125 2119 2016 
L 2350 1972 
Q 2778 1891 2998 1647 
Q 3219 1403 3219 1013 
Q 3219 494 2850 201 
Q 2481 -91 1825 -91 
Q 1566 -91 1281 -36 
Q 997 19 666 128 
L 666 722 
Q 988 556 1281 473 
Q 1575 391 1838 391 
Q 2219 391 2428 545 
Q 2638 700 2638 978 
Q 2638 1378 1872 1531 
L 1847 1538 
L 1631 1581 
Q 1134 1678 906 1908 
Q 678 2138 678 2534 
Q 678 3038 1018 3311 
Q 1359 3584 1991 3584 
Q 2272 3584 2531 3532 
Q 2791 3481 3041 3378 
z
" transform="scale(0.015625)"/>
       <path id="DejaVuSansMono-69" d="M 800 3500 
L 2272 3500 
L 2272 447 
L 3413 447 
L 3413 0 
L 556 0 
L 556 447 
L 1697 447 
L 1697 3053 
L 800 3053 
L 800 3500 
z
M 1697 4863 
L 2272 4863 
L 2272 4134 
L 1697 4134 
L 1697 4863 
z
" transform="scale(0.015625)"/>
       <path id="DejaVuSansMono-6d" d="M 2113 3144 
Q 2219 3369 2383 3476 
Q 2547 3584 2778 3584 
Q 3200 3584 3373 3257 
Q 3547 2931 3547 2028 
L 3547 0 
L 3022 0 
L 3022 2003 
Q 3022 2744 2939 2923 
Q 2856 3103 2638 3103 
Q 2388 3103 2295 2911 
Q 2203 2719 2203 2003 
L 2203 0 
L 1678 0 
L 1678 2003 
Q 1678 2753 1589 2928 
Q 1500 3103 1269 3103 
Q 1041 3103 952 2911 
Q 863 2719 863 2003 
L 863 0 
L 341 0 
L 341 3500 
L 863 3500 
L 863 3200 
Q 966 3388 1120 3486 
Q 1275 3584 1472 3584 
Q 1709 3584 1867 3475 
Q 2025 3366 2113 3144 
z
" transform="scale(0.015625)"/>
       <path id="DejaVuSansMono-75" d="M 609 1325 
L 609 3494 
L 1184 3494 
L 1184 1325 
Q 1184 853 1351 631 
Q 1519 409 1869 409 
Q 2275 409 2490 695 
Q 2706 981 2706 1516 
L 2706 3494 
L 3284 3494 
L 3284 0 
L 2706 0 
L 2706 525 
Q 2553 222 2289 65 
Q 2025 -91 1672 -91 
Q 1134 -91 871 261 
Q 609 613 609 1325 
z
" transform="scale(0.015625)"/>
       <path id="DejaVuSansMono-6c" d="M 1997 1269 
Q 1997 881 2139 684 
Q 2281 488 2559 488 
L 3231 488 
L 3231 0 
L 2503 0 
Q 1988 0 1705 331 
Q 1422 663 1422 1269 
L 1422 4447 
L 500 4447 
L 500 4897 
L 1997 4897 
L 1997 1269 
z
" transform="scale(0.015625)"/>
       <path id="DejaVuSansMono-61" d="M 2194 1759 
L 2003 1759 
Q 1500 1759 1245 1582 
Q 991 1406 991 1056 
Q 991 741 1181 566 
Q 1372 391 1709 391 
Q 2184 391 2456 720 
Q 2728 1050 2731 1631 
L 2731 1759 
L 2194 1759 
z
M 3309 1997 
L 3309 0 
L 2731 0 
L 2731 519 
Q 2547 206 2267 57 
Q 1988 -91 1588 -91 
Q 1053 -91 734 211 
Q 416 513 416 1019 
Q 416 1603 808 1906 
Q 1200 2209 1959 2209 
L 2731 2209 
L 2731 2300 
Q 2728 2719 2518 2908 
Q 2309 3097 1850 3097 
Q 1556 3097 1256 3012 
Q 956 2928 672 2766 
L 672 3341 
Q 991 3463 1283 3523 
Q 1575 3584 1850 3584 
Q 2284 3584 2592 3456 
Q 2900 3328 3091 3072 
Q 3209 2916 3259 2686 
Q 3309 2456 3309 1997 
z
" transform="scale(0.015625)"/>
       <path id="DejaVuSansMono-74" d="M 1919 4494 
L 1919 3500 
L 3225 3500 
L 3225 3053 
L 1919 3053 
L 1919 1153 
Q 1919 766 2066 612 
Q 2213 459 2578 459 
L 3225 459 
L 3225 0 
L 2522 0 
Q 1875 0 1609 259 
Q 1344 519 1344 1153 
L 1344 3053 
L 409 3053 
L 409 3500 
L 1344 3500 
L 1344 4494 
L 1919 4494 
z
" transform="scale(0.015625)"/>
       <path id="DejaVuSansMono-65" d="M 3475 1894 
L 3475 1613 
L 984 1613 
L 984 1594 
Q 984 1022 1282 709 
Q 1581 397 2125 397 
Q 2400 397 2700 484 
Q 3000 572 3341 750 
L 3341 178 
Q 3013 44 2708 -23 
Q 2403 -91 2119 -91 
Q 1303 -91 843 398 
Q 384 888 384 1747 
Q 384 2584 834 3084 
Q 1284 3584 2034 3584 
Q 2703 3584 3089 3131 
Q 3475 2678 3475 1894 
z
M 2900 2063 
Q 2888 2569 2661 2833 
Q 2434 3097 2009 3097 
Q 1594 3097 1325 2822 
Q 1056 2547 1006 2059 
L 2900 2063 
z
" transform="scale(0.015625)"/>
       <path id="DejaVuSansMono-64" d="M 2681 3053 
L 2681 4863 
L 3256 4863 
L 3256 0 
L 2681 0 
L 2681 441 
Q 2538 181 2298 45 
Q 2059 -91 1747 -91 
Q 1113 -91 748 401 
Q 384 894 384 1759 
Q 384 2613 750 3098 
Q 1116 3584 1747 3584 
Q 2063 3584 2303 3448 
Q 2544 3313 2681 3053 
z
M 991 1747 
Q 991 1078 1203 737 
Q 1416 397 1831 397 
Q 2247 397 2464 740 
Q 2681 1084 2681 1747 
Q 2681 2413 2464 2755 
Q 2247 3097 1831 3097 
Q 1416 3097 1203 2756 
Q 991 2416 991 1747 
z
" transform="scale(0.015625)"/>
       <path id="DejaVuSansMono-20" transform="scale(0.015625)"/>
       <path id="DejaVuSansMono-28" d="M 2766 4856 
Q 2350 4144 2145 3436 
Q 1941 2728 1941 2009 
Q 1941 1294 2145 584 
Q 2350 -125 2766 -844 
L 2266 -844 
Q 1794 -100 1562 604 
Q 1331 1309 1331 2009 
Q 1331 2706 1562 3412 
Q 1794 4119 2266 4856 
L 2766 4856 
z
" transform="scale(0.015625)"/>
       <path id="DejaVuSansMono-68" d="M 3284 2169 
L 3284 0 
L 2706 0 
L 2706 2169 
Q 2706 2641 2540 2862 
Q 2375 3084 2022 3084 
Q 1619 3084 1401 2798 
Q 1184 2513 1184 1978 
L 1184 0 
L 609 0 
L 609 4863 
L 1184 4863 
L 1184 2975 
Q 1338 3275 1600 3429 
Q 1863 3584 2222 3584 
Q 2756 3584 3020 3232 
Q 3284 2881 3284 2169 
z
" transform="scale(0.015625)"/>
       <path id="DejaVuSansMono-6f" d="M 1925 3097 
Q 1488 3097 1263 2756 
Q 1038 2416 1038 1747 
Q 1038 1081 1263 739 
Q 1488 397 1925 397 
Q 2366 397 2591 739 
Q 2816 1081 2816 1747 
Q 2816 2416 2591 2756 
Q 2366 3097 1925 3097 
z
M 1925 3584 
Q 2653 3584 3039 3112 
Q 3425 2641 3425 1747 
Q 3425 850 3040 379 
Q 2656 -91 1925 -91 
Q 1197 -91 812 379 
Q 428 850 428 1747 
Q 428 2641 812 3112 
Q 1197 3584 1925 3584 
z
" transform="scale(0.015625)"/>
       <path id="DejaVuSansMono-72" d="M 3609 2778 
Q 3425 2922 3234 2987 
Q 3044 3053 2816 3053 
Q 2278 3053 1993 2715 
Q 1709 2378 1709 1741 
L 1709 0 
L 1131 0 
L 1131 3500 
L 1709 3500 
L 1709 2816 
Q 1853 3188 2151 3386 
Q 2450 3584 2859 3584 
Q 3072 3584 3256 3531 
Q 3441 3478 3609 3366 
L 3609 2778 
z
" transform="scale(0.015625)"/>
       <path id="DejaVuSansMono-29" d="M 1088 4856 
L 1588 4856 
Q 2059 4119 2290 3412 
Q 2522 2706 2522 2009 
Q 2522 1306 2290 600 
Q 2059 -106 1588 -844 
L 1088 -844 
Q 1503 -119 1708 590 
Q 1913 1300 1913 2009 
Q 1913 2722 1708 3431 
Q 1503 4141 1088 4856 
z
" transform="scale(0.015625)"/>
      </defs>
      <use xlink:href="#DejaVuSansMono-73"/>
      <use xlink:href="#DejaVuSansMono-69" transform="translate(60.205078 0)"/>
      <use xlink:href="#DejaVuSansMono-6d" transform="translate(120.410156 0)"/>
      <use xlink:href="#DejaVuSansMono-75" transform="translate(180.615234 0)"/>
      <use xlink:href="#DejaVuSansMono-6c" transform="translate(240.820312 0)"/>
      <use xlink:href="#DejaVuSansMono-61" transform="translate(301.025391 0)"/>
      <use xlink:href="#DejaVuSansMono-74" transform="translate(361.230469 0)"/>
      <use xlink:href="#DejaVuSansMono-65" transform="translate(421.435547 0)"/>
      <use xlink:href="#DejaVuSansMono-64" transform="translate(481.640625 0)"/>
      <use xlink:href="#DejaVuSansMono-20" transform="translate(541.845703 0)"/>
      <use xlink:href="#DejaVuSansMono-74" transform="translate(602.050781 0)"/>
      <use xlink:href="#DejaVuSansMono-69" transform="translate(662.255859 0)"/>
      <use xlink:href="#DejaVuSansMono-6d" transform="translate(722.460938 0)"/>
      <use xlink:href="#DejaVuSansMono-65" transform="translate(782.666016 0)"/>
      <use xlink:href="#DejaVuSansMono-20" transform="translate(842.871094 0)"/>
      <use xlink:href="#DejaVuSansMono-28" transform="translate(903.076172 0)"/>
      <use xlink:href="#DejaVuSansMono-68" transform="translate(963.28125 0)"/>
      <use xlink:href="#DejaVuSansMono-6f" transform="translate(1023.486328 0)"/>
      <use xlink:href="#DejaVuSansMono-75" transform="translate(1083.691406 0)"/>
      <use xlink:href="#DejaVuSansMono-72" transform="translate(1143.896484 0)"/>
      <use xlink:href="#DejaVuSansMono-73" transform="translate(1204.101562 0)"/>
      <use xlink:href="#DejaVuSansMono-29" transform="translate(1264.306641 0)"/>
     </g>
    </g>
   </g>
   <g id="matplotlib.axis_2">
    <g id="ytick_1">
     <g id="line2d_11">
      <path d="M 34.309375 197.694801 
L 777.239375 197.694801 
" clip-path="url(#p7655b6ac9c)" style="fill: none; stroke: #b0b0b0; stroke-opacity: 0.25; stroke-width: 0.8; stroke-linecap: square"/>
     </g>
     <g id="line2d_12">
      <defs>
       <path id="m4a4c163c87" d="M 0 0 
L -3.5 0 
" style="stroke: #000000; stroke-width: 0.8"/>
      </defs>
      <g>
       <use xlink:href="#m4a4c163c87" x="34.309375" y="197.694801" style="stroke: #000000; stroke-width: 0.8"/>
      </g>
     </g>
     <g id="text_7">
      <!-- 0 -->
      <g transform="translate(20.946875 201.49402) scale(0.1 -0.1)">
       <use xlink:href="#DejaVuSans-30"/>
      </g>
     </g>
    </g>
    <g id="ytick_2">
     <g id="line2d_13">
      <path d="M 34.309375 176.63571 
L 777.239375 176.63571 
" clip-path="url(#p7655b6ac9c)" style="fill: none; stroke: #b0b0b0; stroke-opacity: 0.25; stroke-width: 0.8; stroke-linecap: square"/>
     </g>
     <g id="line2d_14">
      <g>
       <use xlink:href="#m4a4c163c87" x="34.309375" y="176.63571" style="stroke: #000000; stroke-width: 0.8"/>
      </g>
     </g>
     <g id="text_8">
      <!-- 1 -->
      <g transform="translate(20.946875 180.434929) scale(0.1 -0.1)">
       <use xlink:href="#DejaVuSans-31"/>
      </g>
     </g>
    </g>
    <g id="ytick_3">
     <g id="line2d_15">
      <path d="M 34.309375 155.576619 
L 777.239375 155.576619 
" clip-path="url(#p7655b6ac9c)" style="fill: none; stroke: #b0b0b0; stroke-opacity: 0.25; stroke-width: 0.8; stroke-linecap: square"/>
     </g>
     <g id="line2d_16">
      <g>
       <use xlink:href="#m4a4c163c87" x="34.309375" y="155.576619" style="stroke: #000000; stroke-width: 0.8"/>
      </g>
     </g>
     <g id="text_9">
      <!-- 2 -->
      <g transform="translate(20.946875 159.375838) scale(0.1 -0.1)">
       <use xlink:href="#DejaVuSans-32"/>
      </g>
     </g>
    </g>
    <g id="ytick_4">
     <g id="line2d_17">
      <path d="M 34.309375 134.517528 
L 777.239375 134.517528 
" clip-path="url(#p7655b6ac9c)" style="fill: none; stroke: #b0b0b0; stroke-opacity: 0.25; stroke-width: 0.8; stroke-linecap: square"/>
     </g>
     <g id="line2d_18">
      <g>
       <use xlink:href="#m4a4c163c87" x="34.309375" y="134.517528" style="stroke: #000000; stroke-width: 0.8"/>
      </g>
     </g>
     <g id="text_10">
      <!-- 3 -->
      <g transform="translate(20.946875 138.316747) scale(0.1 -0.1)">
       <use xlink:href="#DejaVuSans-33"/>
      </g>
     </g>
    </g>
    <g id="ytick_5">
     <g id="line2d_19">
      <path d="M 34.309375 113.458437 
L 777.239375 113.458437 
" clip-path="url(#p7655b6ac9c)" style="fill: none; stroke: #b0b0b0; stroke-opacity: 0.25; stroke-width: 0.8; stroke-linecap: square"/>
     </g>
     <g id="line2d_20">
      <g>
       <use xlink:href="#m4a4c163c87" x="34.309375" y="113.458437" style="stroke: #000000; stroke-width: 0.8"/>
      </g>
     </g>
     <g id="text_11">
      <!-- 4 -->
      <g transform="translate(20.946875 117.257656) scale(0.1 -0.1)">
       <use xlink:href="#DejaVuSans-34"/>
      </g>
     </g>
    </g>
    <g id="ytick_6">
     <g id="line2d_21">
      <path d="M 34.309375 92.399347 
L 777.239375 92.399347 
" clip-path="url(#p7655b6ac9c)" style="fill: none; stroke: #b0b0b0; stroke-opacity: 0.25; stroke-width: 0.8; stroke-linecap: square"/>
     </g>
     <g id="line2d_22">
      <g>
       <use xlink:href="#m4a4c163c87" x="34.309375" y="92.399347" style="stroke: #000000; stroke-width: 0.8"/>
      </g>
     </g>
     <g id="text_12">
      <!-- 5 -->
      <g transform="translate(20.946875 96.198565) scale(0.1 -0.1)">
       <defs>
        <path id="DejaVuSans-35" d="M 691 4666 
L 3169 4666 
L 3169 4134 
L 1269 4134 
L 1269 2991 
Q 1406 3038 1543 3061 
Q 1681 3084 1819 3084 
Q 2600 3084 3056 2656 
Q 3513 2228 3513 1497 
Q 3513 744 3044 326 
Q 2575 -91 1722 -91 
Q 1428 -91 1123 -41 
Q 819 9 494 109 
L 494 744 
Q 775 591 1075 516 
Q 1375 441 1709 441 
Q 2250 441 2565 725 
Q 2881 1009 2881 1497 
Q 2881 1984 2565 2268 
Q 2250 2553 1709 2553 
Q 1456 2553 1204 2497 
Q 953 2441 691 2322 
L 691 4666 
z
" transform="scale(0.015625)"/>
       </defs>
       <use xlink:href="#DejaVuSans-35"/>
      </g>
     </g>
    </g>
    <g id="ytick_7">
     <g id="line2d_23">
      <path d="M 34.309375 71.340256 
L 777.239375 71.340256 
" clip-path="url(#p7655b6ac9c)" style="fill: none; stroke: #b0b0b0; stroke-opacity: 0.25; stroke-width: 0.8; stroke-linecap: square"/>
     </g>
     <g id="line2d_24">
      <g>
       <use xlink:href="#m4a4c163c87" x="34.309375" y="71.340256" style="stroke: #000000; stroke-width: 0.8"/>
      </g>
     </g>
     <g id="text_13">
      <!-- 6 -->
      <g transform="translate(20.946875 75.139474) scale(0.1 -0.1)">
       <defs>
        <path id="DejaVuSans-36" d="M 2113 2584 
Q 1688 2584 1439 2293 
Q 1191 2003 1191 1497 
Q 1191 994 1439 701 
Q 1688 409 2113 409 
Q 2538 409 2786 701 
Q 3034 994 3034 1497 
Q 3034 2003 2786 2293 
Q 2538 2584 2113 2584 
z
M 3366 4563 
L 3366 3988 
Q 3128 4100 2886 4159 
Q 2644 4219 2406 4219 
Q 1781 4219 1451 3797 
Q 1122 3375 1075 2522 
Q 1259 2794 1537 2939 
Q 1816 3084 2150 3084 
Q 2853 3084 3261 2657 
Q 3669 2231 3669 1497 
Q 3669 778 3244 343 
Q 2819 -91 2113 -91 
Q 1303 -91 875 529 
Q 447 1150 447 2328 
Q 447 3434 972 4092 
Q 1497 4750 2381 4750 
Q 2619 4750 2861 4703 
Q 3103 4656 3366 4563 
z
" transform="scale(0.015625)"/>
       </defs>
       <use xlink:href="#DejaVuSans-36"/>
      </g>
     </g>
    </g>
    <g id="ytick_8">
     <g id="line2d_25">
      <path d="M 34.309375 50.281165 
L 777.239375 50.281165 
" clip-path="url(#p7655b6ac9c)" style="fill: none; stroke: #b0b0b0; stroke-opacity: 0.25; stroke-width: 0.8; stroke-linecap: square"/>
     </g>
     <g id="line2d_26">
      <g>
       <use xlink:href="#m4a4c163c87" x="34.309375" y="50.281165" style="stroke: #000000; stroke-width: 0.8"/>
      </g>
     </g>
     <g id="text_14">
      <!-- 7 -->
      <g transform="translate(20.946875 54.080384) scale(0.1 -0.1)">
       <defs>
        <path id="DejaVuSans-37" d="M 525 4666 
L 3525 4666 
L 3525 4397 
L 1831 0 
L 1172 0 
L 2766 4134 
L 525 4134 
L 525 4666 
z
" transform="scale(0.015625)"/>
       </defs>
       <use xlink:href="#DejaVuSans-37"/>
      </g>
     </g>
    </g>
    <g id="ytick_9">
     <g id="line2d_27">
      <path d="M 34.309375 29.222074 
L 777.239375 29.222074 
" clip-path="url(#p7655b6ac9c)" style="fill: none; stroke: #b0b0b0; stroke-opacity: 0.25; stroke-width: 0.8; stroke-linecap: square"/>
     </g>
     <g id="line2d_28">
      <g>
       <use xlink:href="#m4a4c163c87" x="34.309375" y="29.222074" style="stroke: #000000; stroke-width: 0.8"/>
      </g>
     </g>
     <g id="text_15">
      <!-- 8 -->
      <g transform="translate(20.946875 33.021293) scale(0.1 -0.1)">
       <defs>
        <path id="DejaVuSans-38" d="M 2034 2216 
Q 1584 2216 1326 1975 
Q 1069 1734 1069 1313 
Q 1069 891 1326 650 
Q 1584 409 2034 409 
Q 2484 409 2743 651 
Q 3003 894 3003 1313 
Q 3003 1734 2745 1975 
Q 2488 2216 2034 2216 
z
M 1403 2484 
Q 997 2584 770 2862 
Q 544 3141 544 3541 
Q 544 4100 942 4425 
Q 1341 4750 2034 4750 
Q 2731 4750 3128 4425 
Q 3525 4100 3525 3541 
Q 3525 3141 3298 2862 
Q 3072 2584 2669 2484 
Q 3125 2378 3379 2068 
Q 3634 1759 3634 1313 
Q 3634 634 3220 271 
Q 2806 -91 2034 -91 
Q 1263 -91 848 271 
Q 434 634 434 1313 
Q 434 1759 690 2068 
Q 947 2378 1403 2484 
z
M 1172 3481 
Q 1172 3119 1398 2916 
Q 1625 2713 2034 2713 
Q 2441 2713 2670 2916 
Q 2900 3119 2900 3481 
Q 2900 3844 2670 4047 
Q 2441 4250 2034 4250 
Q 1625 4250 1398 4047 
Q 1172 3844 1172 3481 
z
" transform="scale(0.015625)"/>
       </defs>
       <use xlink:href="#DejaVuSans-38"/>
      </g>
     </g>
    </g>
    <g id="text_16">
     <!-- nodes running -->
     <g transform="translate(14.798438 152.590469) rotate(-90) scale(0.1 -0.1)">
      <defs>
       <path id="DejaVuSansMono-6e" d="M 3284 2169 
L 3284 0 
L 2706 0 
L 2706 2169 
Q 2706 2641 2540 2862 
Q 2375 3084 2022 3084 
Q 1619 3084 1401 2798 
Q 1184 2513 1184 1978 
L 1184 0 
L 609 0 
L 609 3500 
L 1184 3500 
L 1184 2975 
Q 1338 3275 1600 3429 
Q 1863 3584 2222 3584 
Q 2756 3584 3020 3232 
Q 3284 2881 3284 2169 
z
" transform="scale(0.015625)"/>
       <path id="DejaVuSansMono-67" d="M 2681 1778 
Q 2681 2425 2470 2761 
Q 2259 3097 1856 3097 
Q 1434 3097 1212 2761 
Q 991 2425 991 1778 
Q 991 1131 1214 792 
Q 1438 453 1863 453 
Q 2259 453 2470 793 
Q 2681 1134 2681 1778 
z
M 3256 225 
Q 3256 -563 2884 -969 
Q 2513 -1375 1791 -1375 
Q 1553 -1375 1293 -1331 
Q 1034 -1288 775 -1203 
L 775 -634 
Q 1081 -778 1331 -847 
Q 1581 -916 1791 -916 
Q 2256 -916 2468 -662 
Q 2681 -409 2681 141 
L 2681 166 
L 2681 556 
Q 2544 263 2306 119 
Q 2069 -25 1728 -25 
Q 1116 -25 750 465 
Q 384 956 384 1778 
Q 384 2603 750 3093 
Q 1116 3584 1728 3584 
Q 2066 3584 2300 3450 
Q 2534 3316 2681 3034 
L 2681 3488 
L 3256 3488 
L 3256 225 
z
" transform="scale(0.015625)"/>
      </defs>
      <use xlink:href="#DejaVuSansMono-6e"/>
      <use xlink:href="#DejaVuSansMono-6f" transform="translate(60.205078 0)"/>
      <use xlink:href="#DejaVuSansMono-64" transform="translate(120.410156 0)"/>
      <use xlink:href="#DejaVuSansMono-65" transform="translate(180.615234 0)"/>
      <use xlink:href="#DejaVuSansMono-73" transform="translate(240.820312 0)"/>
      <use xlink:href="#DejaVuSansMono-20" transform="translate(301.025391 0)"/>
      <use xlink:href="#DejaVuSansMono-72" transform="translate(361.230469 0)"/>
      <use xlink:href="#DejaVuSansMono-75" transform="translate(421.435547 0)"/>
      <use xlink:href="#DejaVuSansMono-6e" transform="translate(481.640625 0)"/>
      <use xlink:href="#DejaVuSansMono-6e" transform="translate(541.845703 0)"/>
      <use xlink:href="#DejaVuSansMono-69" transform="translate(602.050781 0)"/>
      <use xlink:href="#DejaVuSansMono-6e" transform="translate(662.255859 0)"/>
      <use xlink:href="#DejaVuSansMono-67" transform="translate(722.460938 0)"/>
     </g>
    </g>
   </g>
   <g id="line2d_29">
    <path d="M 68.07892 197.694801 
L 86.765625 197.694801 
L 86.765625 176.63571 
L 94.774213 176.63571 
L 94.774213 134.517528 
L 100.113272 134.517528 
L 100.113272 113.458437 
L 116.130448 113.458437 
L 116.130448 92.399347 
L 118.799977 92.399347 
L 118.799977 71.340256 
L 121.469506 71.340256 
L 121.469506 50.281165 
L 129.478094 50.281165 
L 129.478094 92.399347 
L 132.147623 92.399347 
L 132.147623 71.340256 
L 134.817153 71.340256 
L 134.817153 50.281165 
L 140.156211 50.281165 
L 140.156211 71.340256 
L 161.512445 71.340256 
L 161.512445 134.517528 
L 164.181975 134.517528 
L 164.181975 113.458437 
L 169.521033 113.458437 
L 169.521033 92.399347 
L 177.529621 92.399347 
L 177.529621 71.340256 
L 180.19915 71.340256 
L 180.19915 50.281165 
L 182.86868 50.281165 
L 182.86868 71.340256 
L 190.877268 71.340256 
L 190.877268 50.281165 
L 196.216326 50.281165 
L 196.216326 92.399347 
L 220.24209 92.399347 
L 220.24209 113.458437 
L 228.250678 113.458437 
L 228.250678 134.517528 
L 238.928795 134.517528 
L 238.928795 155.576619 
L 316.345144 155.576619 
L 316.345144 134.517528 
L 356.388083 134.517528 
L 356.388083 155.576619 
L 383.083376 155.576619 
L 383.083376 176.63571 
L 391.091964 176.63571 
L 391.091964 155.576619 
L 399.100552 155.576619 
L 399.100552 134.517528 
L 433.804432 134.517528 
L 433.804432 155.576619 
L 471.177842 155.576619 
L 471.177842 176.63571 
L 487.195018 176.63571 
L 487.195018 155.576619 
L 492.534077 155.576619 
L 492.534077 134.517528 
L 505.881723 134.517528 
L 505.881723 113.458437 
L 513.890311 113.458437 
L 513.890311 92.399347 
L 529.907487 92.399347 
L 529.907487 113.458437 
L 559.272309 113.458437 
L 559.272309 134.517528 
L 561.941838 134.517528 
L 561.941838 155.576619 
L 567.280897 155.576619 
L 567.280897 134.517528 
L 580.628543 134.517528 
L 580.628543 155.576619 
L 628.68007 155.576619 
L 628.68007 134.517528 
L 655.375363 134.517528 
L 655.375363 155.576619 
L 658.044892 155.576619 
L 658.044892 134.517528 
L 687.409715 134.517528 
L 687.409715 155.576619 
L 730.122183 155.576619 
L 730.122183 176.63571 
L 738.130771 176.63571 
L 738.130771 176.63571 
" clip-path="url(#p7655b6ac9c)" style="fill: none; stroke: #2c7bb6; stroke-width: 1.5; stroke-linecap: square"/>
   </g>
   <g id="line2d_30">
    <path d="M 68.07892 197.694801 
L 86.765625 197.694801 
L 86.765625 176.63571 
L 94.774213 176.63571 
L 94.774213 134.517528 
L 100.113272 134.517528 
L 100.113272 113.458437 
L 116.130448 113.458437 
L 116.130448 92.399347 
L 118.799977 92.399347 
L 118.799977 71.340256 
L 121.469506 71.340256 
L 121.469506 50.281165 
L 129.478094 50.281165 
L 129.478094 71.340256 
L 132.147623 71.340256 
L 132.147623 50.281165 
L 134.817153 50.281165 
L 134.817153 29.222074 
L 140.156211 29.222074 
L 140.156211 50.281165 
L 150.834328 50.281165 
L 150.834328 71.340256 
L 161.512445 71.340256 
L 161.512445 134.517528 
L 169.521033 134.517528 
L 169.521033 113.458437 
L 174.860092 113.458437 
L 174.860092 92.399347 
L 177.529621 92.399347 
L 177.529621 71.340256 
L 180.19915 71.340256 
L 180.19915 50.281165 
L 182.86868 50.281165 
L 182.86868 71.340256 
L 190.877268 71.340256 
L 190.877268 50.281165 
L 196.216326 50.281165 
L 196.216326 71.340256 
L 201.555385 71.340256 
L 201.555385 92.399347 
L 212.233502 92.399347 
L 212.233502 113.458437 
L 217.57256 113.458437 
L 217.57256 134.517528 
L 220.24209 134.517528 
L 220.24209 155.576619 
L 262.954558 155.576619 
L 262.954558 134.517528 
L 276.302205 134.517528 
L 276.302205 155.576619 
L 292.31938 155.576619 
L 292.31938 134.517528 
L 316.345144 134.517528 
L 316.345144 113.458437 
L 327.023261 113.458437 
L 327.023261 134.517528 
L 343.040437 134.517528 
L 343.040437 113.458437 
L 345.709966 113.458437 
L 345.709966 134.517528 
L 356.388083 134.517528 
L 356.388083 155.576619 
L 383.083376 155.576619 
L 383.083376 176.63571 
L 391.091964 176.63571 
L 391.091964 155.576619 
L 399.100552 155.576619 
L 399.100552 134.517528 
L 425.795845 134.517528 
L 425.795845 155.576619 
L 439.143491 155.576619 
L 439.143491 134.517528 
L 452.491137 134.517528 
L 452.491137 113.458437 
L 479.18643 113.458437 
L 479.18643 134.517528 
L 484.525489 134.517528 
L 484.525489 155.576619 
L 487.195018 155.576619 
L 487.195018 134.517528 
L 492.534077 134.517528 
L 492.534077 113.458437 
L 529.907487 113.458437 
L 529.907487 134.517528 
L 540.585604 134.517528 
L 540.585604 113.458437 
L 543.255133 113.458437 
L 543.255133 134.517528 
L 561.941838 134.517528 
L 561.941838 155.576619 
L 567.280897 155.576619 
L 567.280897 134.517528 
L 580.628543 134.517528 
L 580.628543 155.576619 
L 628.68007 155.576619 
L 628.68007 134.517528 
L 690.079244 134.517528 
L 690.079244 155.576619 
L 740.8003 155.576619 
L 740.8003 176.63571 
L 743.46983 176.63571 
L 743.46983 176.63571 
" clip-path="url(#p7655b6ac9c)" style="fill: none; stroke: #e08e27; stroke-width: 1.5; stroke-linecap: square"/>
   </g>
   <g id="patch_3">
    <path d="M 34.309375 206.118438 
L 34.309375 20.798437 
" style="fill: none; stroke: #000000; stroke-width: 0.8; stroke-linejoin: miter; stroke-linecap: square"/>
   </g>
   <g id="patch_4">
    <path d="M 777.239375 206.118438 
L 777.239375 20.798437 
" style="fill: none; stroke: #000000; stroke-width: 0.8; stroke-linejoin: miter; stroke-linecap: square"/>
   </g>
   <g id="patch_5">
    <path d="M 34.309375 206.118438 
L 777.239375 206.118438 
" style="fill: none; stroke: #000000; stroke-width: 0.8; stroke-linejoin: miter; stroke-linecap: square"/>
   </g>
   <g id="patch_6">
    <path d="M 34.309375 20.798437 
L 777.239375 20.798437 
" style="fill: none; stroke: #000000; stroke-width: 0.8; stroke-linejoin: miter; stroke-linecap: square"/>
   </g>
   <g id="text_17">
    <!-- Active Node Count Over Time  (provisioning context for charts above) -->
    <g transform="translate(201.08375 14.798437) scale(0.1 -0.1)">
     <defs>
      <path id="DejaVuSansMono-41" d="M 1925 4109 
L 1259 1722 
L 2591 1722 
L 1925 4109 
z
M 1544 4666 
L 2309 4666 
L 3738 0 
L 3084 0 
L 2741 1216 
L 1106 1216 
L 769 0 
L 116 0 
L 1544 4666 
z
" transform="scale(0.015625)"/>
      <path id="DejaVuSansMono-63" d="M 3316 178 
Q 3084 44 2839 -23 
Q 2594 -91 2338 -91 
Q 1525 -91 1067 396 
Q 609 884 609 1747 
Q 609 2609 1067 3096 
Q 1525 3584 2338 3584 
Q 2591 3584 2831 3518 
Q 3072 3453 3316 3316 
L 3316 2713 
Q 3088 2916 2858 3006 
Q 2628 3097 2338 3097 
Q 1797 3097 1506 2747 
Q 1216 2397 1216 1747 
Q 1216 1100 1508 748 
Q 1800 397 2338 397 
Q 2638 397 2875 489 
Q 3113 581 3316 775 
L 3316 178 
z
" transform="scale(0.015625)"/>
      <path id="DejaVuSansMono-76" d="M 313 3500 
L 909 3500 
L 1925 563 
L 2944 3500 
L 3541 3500 
L 2297 0 
L 1556 0 
L 313 3500 
z
" transform="scale(0.015625)"/>
      <path id="DejaVuSansMono-4e" d="M 434 4666 
L 1234 4666 
L 2809 825 
L 2809 4666 
L 3419 4666 
L 3419 0 
L 2619 0 
L 1044 3841 
L 1044 0 
L 434 0 
L 434 4666 
z
" transform="scale(0.015625)"/>
      <path id="DejaVuSansMono-43" d="M 3353 166 
Q 3113 38 2859 -26 
Q 2606 -91 2322 -91 
Q 1425 -91 929 543 
Q 434 1178 434 2328 
Q 434 3472 932 4111 
Q 1431 4750 2322 4750 
Q 2606 4750 2859 4686 
Q 3113 4622 3353 4494 
L 3353 3847 
Q 3122 4038 2856 4138 
Q 2591 4238 2322 4238 
Q 1706 4238 1400 3763 
Q 1094 3288 1094 2328 
Q 1094 1372 1400 897 
Q 1706 422 2322 422 
Q 2597 422 2861 522 
Q 3125 622 3353 813 
L 3353 166 
z
" transform="scale(0.015625)"/>
      <path id="DejaVuSansMono-4f" d="M 2828 2328 
Q 2828 3356 2617 3797 
Q 2406 4238 1925 4238 
Q 1447 4238 1236 3797 
Q 1025 3356 1025 2328 
Q 1025 1303 1236 862 
Q 1447 422 1925 422 
Q 2406 422 2617 861 
Q 2828 1300 2828 2328 
z
M 3488 2328 
Q 3488 1109 3102 509 
Q 2716 -91 1925 -91 
Q 1134 -91 750 506 
Q 366 1103 366 2328 
Q 366 3550 752 4150 
Q 1138 4750 1925 4750 
Q 2716 4750 3102 4150 
Q 3488 3550 3488 2328 
z
" transform="scale(0.015625)"/>
      <path id="DejaVuSansMono-54" d="M 147 4666 
L 3706 4666 
L 3706 4134 
L 2247 4134 
L 2247 0 
L 1613 0 
L 1613 4134 
L 147 4134 
L 147 4666 
z
" transform="scale(0.015625)"/>
      <path id="DejaVuSansMono-70" d="M 1172 441 
L 1172 -1331 
L 594 -1331 
L 594 3500 
L 1172 3500 
L 1172 3053 
Q 1316 3313 1555 3448 
Q 1794 3584 2106 3584 
Q 2741 3584 3102 3093 
Q 3463 2603 3463 1734 
Q 3463 881 3100 395 
Q 2738 -91 2106 -91 
Q 1788 -91 1548 45 
Q 1309 181 1172 441 
z
M 2859 1747 
Q 2859 2416 2648 2756 
Q 2438 3097 2022 3097 
Q 1603 3097 1387 2755 
Q 1172 2413 1172 1747 
Q 1172 1084 1387 740 
Q 1603 397 2022 397 
Q 2438 397 2648 737 
Q 2859 1078 2859 1747 
z
" transform="scale(0.015625)"/>
      <path id="DejaVuSansMono-78" d="M 3494 3500 
L 2241 1825 
L 3616 0 
L 2950 0 
L 1925 1403 
L 903 0 
L 238 0 
L 1613 1825 
L 359 3500 
L 997 3500 
L 1925 2234 
L 2847 3500 
L 3494 3500 
z
" transform="scale(0.015625)"/>
      <path id="DejaVuSansMono-66" d="M 3322 4863 
L 3322 4384 
L 2669 4384 
Q 2359 4384 2239 4257 
Q 2119 4131 2119 3809 
L 2119 3500 
L 3322 3500 
L 3322 3053 
L 2119 3053 
L 2119 0 
L 1544 0 
L 1544 3053 
L 609 3053 
L 609 3500 
L 1544 3500 
L 1544 3744 
Q 1544 4319 1808 4591 
Q 2072 4863 2631 4863 
L 3322 4863 
z
" transform="scale(0.015625)"/>
      <path id="DejaVuSansMono-62" d="M 2869 1747 
Q 2869 2416 2656 2756 
Q 2444 3097 2028 3097 
Q 1609 3097 1393 2755 
Q 1178 2413 1178 1747 
Q 1178 1084 1393 740 
Q 1609 397 2028 397 
Q 2444 397 2656 737 
Q 2869 1078 2869 1747 
z
M 1178 3053 
Q 1316 3309 1558 3446 
Q 1800 3584 2119 3584 
Q 2750 3584 3112 3098 
Q 3475 2613 3475 1759 
Q 3475 894 3111 401 
Q 2747 -91 2113 -91 
Q 1800 -91 1561 45 
Q 1322 181 1178 441 
L 1178 0 
L 603 0 
L 603 4863 
L 1178 4863 
L 1178 3053 
z
" transform="scale(0.015625)"/>
     </defs>
     <use xlink:href="#DejaVuSansMono-41"/>
     <use xlink:href="#DejaVuSansMono-63" transform="translate(60.205078 0)"/>
     <use xlink:href="#DejaVuSansMono-74" transform="translate(120.410156 0)"/>
     <use xlink:href="#DejaVuSansMono-69" transform="translate(180.615234 0)"/>
     <use xlink:href="#DejaVuSansMono-76" transform="translate(240.820312 0)"/>
     <use xlink:href="#DejaVuSansMono-65" transform="translate(301.025391 0)"/>
     <use xlink:href="#DejaVuSansMono-20" transform="translate(361.230469 0)"/>
     <use xlink:href="#DejaVuSansMono-4e" transform="translate(421.435547 0)"/>
     <use xlink:href="#DejaVuSansMono-6f" transform="translate(481.640625 0)"/>
     <use xlink:href="#DejaVuSansMono-64" transform="translate(541.845703 0)"/>
     <use xlink:href="#DejaVuSansMono-65" transform="translate(602.050781 0)"/>
     <use xlink:href="#DejaVuSansMono-20" transform="translate(662.255859 0)"/>
     <use xlink:href="#DejaVuSansMono-43" transform="translate(722.460938 0)"/>
     <use xlink:href="#DejaVuSansMono-6f" transform="translate(782.666016 0)"/>
     <use xlink:href="#DejaVuSansMono-75" transform="translate(842.871094 0)"/>
     <use xlink:href="#DejaVuSansMono-6e" transform="translate(903.076172 0)"/>
     <use xlink:href="#DejaVuSansMono-74" transform="translate(963.28125 0)"/>
     <use xlink:href="#DejaVuSansMono-20" transform="translate(1023.486328 0)"/>
     <use xlink:href="#DejaVuSansMono-4f" transform="translate(1083.691406 0)"/>
     <use xlink:href="#DejaVuSansMono-76" transform="translate(1143.896484 0)"/>
     <use xlink:href="#DejaVuSansMono-65" transform="translate(1204.101562 0)"/>
     <use xlink:href="#DejaVuSansMono-72" transform="translate(1264.306641 0)"/>
     <use xlink:href="#DejaVuSansMono-20" transform="translate(1324.511719 0)"/>
     <use xlink:href="#DejaVuSansMono-54" transform="translate(1384.716797 0)"/>
     <use xlink:href="#DejaVuSansMono-69" transform="translate(1444.921875 0)"/>
     <use xlink:href="#DejaVuSansMono-6d" transform="translate(1505.126953 0)"/>
     <use xlink:href="#DejaVuSansMono-65" transform="translate(1565.332031 0)"/>
     <use xlink:href="#DejaVuSansMono-20" transform="translate(1625.537109 0)"/>
     <use xlink:href="#DejaVuSansMono-20" transform="translate(1685.742188 0)"/>
     <use xlink:href="#DejaVuSansMono-28" transform="translate(1745.947266 0)"/>
     <use xlink:href="#DejaVuSansMono-70" transform="translate(1806.152344 0)"/>
     <use xlink:href="#DejaVuSansMono-72" transform="translate(1866.357422 0)"/>
     <use xlink:href="#DejaVuSansMono-6f" transform="translate(1926.5625 0)"/>
     <use xlink:href="#DejaVuSansMono-76" transform="translate(1986.767578 0)"/>
     <use xlink:href="#DejaVuSansMono-69" transform="translate(2046.972656 0)"/>
     <use xlink:href="#DejaVuSansMono-73" transform="translate(2107.177734 0)"/>
     <use xlink:href="#DejaVuSansMono-69" transform="translate(2167.382812 0)"/>
     <use xlink:href="#DejaVuSansMono-6f" transform="translate(2227.587891 0)"/>
     <use xlink:href="#DejaVuSansMono-6e" transform="translate(2287.792969 0)"/>
     <use xlink:href="#DejaVuSansMono-69" transform="translate(2347.998047 0)"/>
     <use xlink:href="#DejaVuSansMono-6e" transform="translate(2408.203125 0)"/>
     <use xlink:href="#DejaVuSansMono-67" transform="translate(2468.408203 0)"/>
     <use xlink:href="#DejaVuSansMono-20" transform="translate(2528.613281 0)"/>
     <use xlink:href="#DejaVuSansMono-63" transform="translate(2588.818359 0)"/>
     <use xlink:href="#DejaVuSansMono-6f" transform="translate(2649.023438 0)"/>
     <use xlink:href="#DejaVuSansMono-6e" transform="translate(2709.228516 0)"/>
     <use xlink:href="#DejaVuSansMono-74" transform="translate(2769.433594 0)"/>
     <use xlink:href="#DejaVuSansMono-65" transform="translate(2829.638672 0)"/>
     <use xlink:href="#DejaVuSansMono-78" transform="translate(2889.84375 0)"/>
     <use xlink:href="#DejaVuSansMono-74" transform="translate(2950.048828 0)"/>
     <use xlink:href="#DejaVuSansMono-20" transform="translate(3010.253906 0)"/>
     <use xlink:href="#DejaVuSansMono-66" transform="translate(3070.458984 0)"/>
     <use xlink:href="#DejaVuSansMono-6f" transform="translate(3130.664062 0)"/>
     <use xlink:href="#DejaVuSansMono-72" transform="translate(3190.869141 0)"/>
     <use xlink:href="#DejaVuSansMono-20" transform="translate(3251.074219 0)"/>
     <use xlink:href="#DejaVuSansMono-63" transform="translate(3311.279297 0)"/>
     <use xlink:href="#DejaVuSansMono-68" transform="translate(3371.484375 0)"/>
     <use xlink:href="#DejaVuSansMono-61" transform="translate(3431.689453 0)"/>
     <use xlink:href="#DejaVuSansMono-72" transform="translate(3491.894531 0)"/>
     <use xlink:href="#DejaVuSansMono-74" transform="translate(3552.099609 0)"/>
     <use xlink:href="#DejaVuSansMono-73" transform="translate(3612.304688 0)"/>
     <use xlink:href="#DejaVuSansMono-20" transform="translate(3672.509766 0)"/>
     <use xlink:href="#DejaVuSansMono-61" transform="translate(3732.714844 0)"/>
     <use xlink:href="#DejaVuSansMono-62" transform="translate(3792.919922 0)"/>
     <use xlink:href="#DejaVuSansMono-6f" transform="translate(3853.125 0)"/>
     <use xlink:href="#DejaVuSansMono-76" transform="translate(3913.330078 0)"/>
     <use xlink:href="#DejaVuSansMono-65" transform="translate(3973.535156 0)"/>
     <use xlink:href="#DejaVuSansMono-29" transform="translate(4033.740234 0)"/>
    </g>
   </g>
   <g id="legend_1">
    <g id="patch_7">
     <path d="M 688.586562 54.419062 
L 770.939375 54.419062 
Q 772.739375 54.419062 772.739375 52.619062 
L 772.739375 27.098437 
Q 772.739375 25.298437 770.939375 25.298437 
L 688.586562 25.298437 
Q 686.786562 25.298437 686.786562 27.098437 
L 686.786562 52.619062 
Q 686.786562 54.419062 688.586562 54.419062 
z
" style="fill: #ffffff; opacity: 0.8; stroke: #cccccc; stroke-linejoin: miter"/>
    </g>
    <g id="line2d_31">
     <path d="M 690.386562 32.587031 
L 699.386562 32.587031 
L 699.386562 32.587031 
L 708.386562 32.587031 
L 708.386562 32.587031 
" style="fill: none; stroke: #2c7bb6; stroke-width: 1.5; stroke-linecap: square"/>
    </g>
    <g id="text_18">
     <!-- AWS Batch -->
     <g transform="translate(715.586563 35.737031) scale(0.09 -0.09)">
      <defs>
       <path id="DejaVuSans-41" d="M 2188 4044 
L 1331 1722 
L 3047 1722 
L 2188 4044 
z
M 1831 4666 
L 2547 4666 
L 4325 0 
L 3669 0 
L 3244 1197 
L 1141 1197 
L 716 0 
L 50 0 
L 1831 4666 
z
" transform="scale(0.015625)"/>
       <path id="DejaVuSans-57" d="M 213 4666 
L 850 4666 
L 1831 722 
L 2809 4666 
L 3519 4666 
L 4500 722 
L 5478 4666 
L 6119 4666 
L 4947 0 
L 4153 0 
L 3169 4050 
L 2175 0 
L 1381 0 
L 213 4666 
z
" transform="scale(0.015625)"/>
       <path id="DejaVuSans-53" d="M 3425 4513 
L 3425 3897 
Q 3066 4069 2747 4153 
Q 2428 4238 2131 4238 
Q 1616 4238 1336 4038 
Q 1056 3838 1056 3469 
Q 1056 3159 1242 3001 
Q 1428 2844 1947 2747 
L 2328 2669 
Q 3034 2534 3370 2195 
Q 3706 1856 3706 1288 
Q 3706 609 3251 259 
Q 2797 -91 1919 -91 
Q 1588 -91 1214 -16 
Q 841 59 441 206 
L 441 856 
Q 825 641 1194 531 
Q 1563 422 1919 422 
Q 2459 422 2753 634 
Q 3047 847 3047 1241 
Q 3047 1584 2836 1778 
Q 2625 1972 2144 2069 
L 1759 2144 
Q 1053 2284 737 2584 
Q 422 2884 422 3419 
Q 422 4038 858 4394 
Q 1294 4750 2059 4750 
Q 2388 4750 2728 4690 
Q 3069 4631 3425 4513 
z
" transform="scale(0.015625)"/>
       <path id="DejaVuSans-20" transform="scale(0.015625)"/>
       <path id="DejaVuSans-42" d="M 1259 2228 
L 1259 519 
L 2272 519 
Q 2781 519 3026 730 
Q 3272 941 3272 1375 
Q 3272 1813 3026 2020 
Q 2781 2228 2272 2228 
L 1259 2228 
z
M 1259 4147 
L 1259 2741 
L 2194 2741 
Q 2656 2741 2882 2914 
Q 3109 3088 3109 3444 
Q 3109 3797 2882 3972 
Q 2656 4147 2194 4147 
L 1259 4147 
z
M 628 4666 
L 2241 4666 
Q 2963 4666 3353 4366 
Q 3744 4066 3744 3513 
Q 3744 3084 3544 2831 
Q 3344 2578 2956 2516 
Q 3422 2416 3680 2098 
Q 3938 1781 3938 1306 
Q 3938 681 3513 340 
Q 3088 0 2303 0 
L 628 0 
L 628 4666 
z
" transform="scale(0.015625)"/>
       <path id="DejaVuSans-61" d="M 2194 1759 
Q 1497 1759 1228 1600 
Q 959 1441 959 1056 
Q 959 750 1161 570 
Q 1363 391 1709 391 
Q 2188 391 2477 730 
Q 2766 1069 2766 1631 
L 2766 1759 
L 2194 1759 
z
M 3341 1997 
L 3341 0 
L 2766 0 
L 2766 531 
Q 2569 213 2275 61 
Q 1981 -91 1556 -91 
Q 1019 -91 701 211 
Q 384 513 384 1019 
Q 384 1609 779 1909 
Q 1175 2209 1959 2209 
L 2766 2209 
L 2766 2266 
Q 2766 2663 2505 2880 
Q 2244 3097 1772 3097 
Q 1472 3097 1187 3025 
Q 903 2953 641 2809 
L 641 3341 
Q 956 3463 1253 3523 
Q 1550 3584 1831 3584 
Q 2591 3584 2966 3190 
Q 3341 2797 3341 1997 
z
" transform="scale(0.015625)"/>
       <path id="DejaVuSans-74" d="M 1172 4494 
L 1172 3500 
L 2356 3500 
L 2356 3053 
L 1172 3053 
L 1172 1153 
Q 1172 725 1289 603 
Q 1406 481 1766 481 
L 2356 481 
L 2356 0 
L 1766 0 
Q 1100 0 847 248 
Q 594 497 594 1153 
L 594 3053 
L 172 3053 
L 172 3500 
L 594 3500 
L 594 4494 
L 1172 4494 
z
" transform="scale(0.015625)"/>
       <path id="DejaVuSans-63" d="M 3122 3366 
L 3122 2828 
Q 2878 2963 2633 3030 
Q 2388 3097 2138 3097 
Q 1578 3097 1268 2742 
Q 959 2388 959 1747 
Q 959 1106 1268 751 
Q 1578 397 2138 397 
Q 2388 397 2633 464 
Q 2878 531 3122 666 
L 3122 134 
Q 2881 22 2623 -34 
Q 2366 -91 2075 -91 
Q 1284 -91 818 406 
Q 353 903 353 1747 
Q 353 2603 823 3093 
Q 1294 3584 2113 3584 
Q 2378 3584 2631 3529 
Q 2884 3475 3122 3366 
z
" transform="scale(0.015625)"/>
       <path id="DejaVuSans-68" d="M 3513 2113 
L 3513 0 
L 2938 0 
L 2938 2094 
Q 2938 2591 2744 2837 
Q 2550 3084 2163 3084 
Q 1697 3084 1428 2787 
Q 1159 2491 1159 1978 
L 1159 0 
L 581 0 
L 581 4863 
L 1159 4863 
L 1159 2956 
Q 1366 3272 1645 3428 
Q 1925 3584 2291 3584 
Q 2894 3584 3203 3211 
Q 3513 2838 3513 2113 
z
" transform="scale(0.015625)"/>
      </defs>
      <use xlink:href="#DejaVuSans-41"/>
      <use xlink:href="#DejaVuSans-57" transform="translate(62.908203 0)"/>
      <use xlink:href="#DejaVuSans-53" transform="translate(161.785156 0)"/>
      <use xlink:href="#DejaVuSans-20" transform="translate(225.261719 0)"/>
      <use xlink:href="#DejaVuSans-42" transform="translate(257.048828 0)"/>
      <use xlink:href="#DejaVuSans-61" transform="translate(325.652344 0)"/>
      <use xlink:href="#DejaVuSans-74" transform="translate(386.931641 0)"/>
      <use xlink:href="#DejaVuSans-63" transform="translate(426.140625 0)"/>
      <use xlink:href="#DejaVuSans-68" transform="translate(481.121094 0)"/>
     </g>
    </g>
    <g id="line2d_32">
     <path d="M 690.386562 45.797344 
L 699.386562 45.797344 
L 699.386562 45.797344 
L 708.386562 45.797344 
L 708.386562 45.797344 
" style="fill: none; stroke: #e08e27; stroke-width: 1.5; stroke-linecap: square"/>
    </g>
    <g id="text_19">
     <!-- OKD / K8S+ -->
     <g transform="translate(715.586563 48.947344) scale(0.09 -0.09)">
      <defs>
       <path id="DejaVuSans-4f" d="M 2522 4238 
Q 1834 4238 1429 3725 
Q 1025 3213 1025 2328 
Q 1025 1447 1429 934 
Q 1834 422 2522 422 
Q 3209 422 3611 934 
Q 4013 1447 4013 2328 
Q 4013 3213 3611 3725 
Q 3209 4238 2522 4238 
z
M 2522 4750 
Q 3503 4750 4090 4092 
Q 4678 3434 4678 2328 
Q 4678 1225 4090 567 
Q 3503 -91 2522 -91 
Q 1538 -91 948 565 
Q 359 1222 359 2328 
Q 359 3434 948 4092 
Q 1538 4750 2522 4750 
z
" transform="scale(0.015625)"/>
       <path id="DejaVuSans-4b" d="M 628 4666 
L 1259 4666 
L 1259 2694 
L 3353 4666 
L 4166 4666 
L 1850 2491 
L 4331 0 
L 3500 0 
L 1259 2247 
L 1259 0 
L 628 0 
L 628 4666 
z
" transform="scale(0.015625)"/>
       <path id="DejaVuSans-44" d="M 1259 4147 
L 1259 519 
L 2022 519 
Q 2988 519 3436 956 
Q 3884 1394 3884 2338 
Q 3884 3275 3436 3711 
Q 2988 4147 2022 4147 
L 1259 4147 
z
M 628 4666 
L 1925 4666 
Q 3281 4666 3915 4102 
Q 4550 3538 4550 2338 
Q 4550 1131 3912 565 
Q 3275 0 1925 0 
L 628 0 
L 628 4666 
z
" transform="scale(0.015625)"/>
       <path id="DejaVuSans-2f" d="M 1625 4666 
L 2156 4666 
L 531 -594 
L 0 -594 
L 1625 4666 
z
" transform="scale(0.015625)"/>
       <path id="DejaVuSans-2b" d="M 2944 4013 
L 2944 2272 
L 4684 2272 
L 4684 1741 
L 2944 1741 
L 2944 0 
L 2419 0 
L 2419 1741 
L 678 1741 
L 678 2272 
L 2419 2272 
L 2419 4013 
L 2944 4013 
z
" transform="scale(0.015625)"/>
      </defs>
      <use xlink:href="#DejaVuSans-4f"/>
      <use xlink:href="#DejaVuSans-4b" transform="translate(78.710938 0)"/>
      <use xlink:href="#DejaVuSans-44" transform="translate(144.287109 0)"/>
      <use xlink:href="#DejaVuSans-20" transform="translate(221.289062 0)"/>
      <use xlink:href="#DejaVuSans-2f" transform="translate(253.076172 0)"/>
      <use xlink:href="#DejaVuSans-20" transform="translate(286.767578 0)"/>
      <use xlink:href="#DejaVuSans-4b" transform="translate(318.554688 0)"/>
      <use xlink:href="#DejaVuSans-38" transform="translate(384.130859 0)"/>
      <use xlink:href="#DejaVuSans-53" transform="translate(447.753906 0)"/>
      <use xlink:href="#DejaVuSans-2b" transform="translate(511.230469 0)"/>
     </g>
    </g>
   </g>
  </g>
 </g>
 <defs>
  <clipPath id="p7655b6ac9c">
   <rect x="34.309375" y="20.798437" width="742.93" height="185.32"/>
  </clipPath>
 </defs>
</svg>
