<?xml version="1.0" encoding="utf-8" standalone="no"?>
<!DOCTYPE svg PUBLIC "-//W3C//DTD SVG 1.1//EN"
  "http://www.w3.org/Graphics/SVG/1.1/DTD/svg11.dtd">
<svg xmlns:xlink="http://www.w3.org/1999/xlink" width="633.583148pt" height="352.087688pt" viewBox="0 0 633.583148 352.087688" xmlns="http://www.w3.org/2000/svg" version="1.1">
 <metadata>
  <rdf:RDF xmlns:dc="http://purl.org/dc/elements/1.1/" xmlns:cc="http://creativecommons.org/ns#" xmlns:rdf="http://www.w3.org/1999/02/22-rdf-syntax-ns#">
   <cc:Work>
    <dc:type rdf:resource="http://purl.org/dc/dcmitype/StillImage"/>
    <dc:date>2026-05-11T05:57:41.133695</dc:date>
    <dc:format>image/svg+xml</dc:format>
    <dc:creator>
     <cc:Agent>
      <dc:title>Matplotlib v3.10.8, https://matplotlib.org/</dc:title>
     </cc:Agent>
    </dc:creator>
   </cc:Work>
  </rdf:RDF>
 </metadata>
 <defs>
  <style type="text/css">*{stroke-linejoin: round; stroke-linecap: butt}</style>
 </defs>
 <g id="figure_1">
  <g id="patch_1">
   <path d="M 0 352.087688 
L 633.583148 352.087688 
L 633.583148 0 
L 0 0 
z
" style="fill: #ffffff"/>
  </g>
  <g id="axes_1">
   <g id="patch_2">
    <path d="M 47.01875 328.156438 
L 609.046412 328.156438 
L 609.046412 34.004437 
L 47.01875 34.004437 
z
" style="fill: #ffffff"/>
   </g>
   <g id="patch_3">
    <path d="M 72.565462 328.156438 
L 145.556067 328.156438 
L 145.556067 243.036203 
L 72.565462 243.036203 
z
" clip-path="url(#p8b964b0aa9)" style="fill: #2c7bb6; opacity: 0.9"/>
   </g>
   <g id="patch_4">
    <path d="M 364.527884 328.156438 
L 437.518489 328.156438 
L 437.518489 321.170328 
L 364.527884 321.170328 
z
" clip-path="url(#p8b964b0aa9)" style="fill: #e08e27; opacity: 0.9"/>
   </g>
   <g id="patch_5">
    <path d="M 145.556067 328.156438 
L 218.546673 328.156438 
L 218.546673 299.292773 
L 145.556067 299.292773 
z
" clip-path="url(#p8b964b0aa9)" style="fill: #2c7bb6; opacity: 0.55"/>
   </g>
   <g id="patch_6">
    <path d="M 437.518489 328.156438 
L 510.509095 328.156438 
L 510.509095 144.311438 
L 437.518489 144.311438 
z
" clip-path="url(#p8b964b0aa9)" style="fill: #e08e27; opacity: 0.55"/>
   </g>
   <g id="patch_7">
    <path d="M 218.546673 328.156438 
L 291.537278 328.156438 
L 291.537278 314.919598 
L 218.546673 314.919598 
z
" clip-path="url(#p8b964b0aa9)" style="fill: #2c7bb6; opacity: 0.35"/>
   </g>
   <g id="patch_8">
    <path d="M 510.509095 328.156438 
L 583.4997 328.156438 
L 583.4997 314.000373 
L 510.509095 314.000373 
z
" clip-path="url(#p8b964b0aa9)" style="fill: #e08e27; opacity: 0.35"/>
   </g>
   <g id="matplotlib.axis_1">
    <g id="xtick_1">
     <g id="line2d_1">
      <defs>
       <path id="m5fe6212013" d="M 0 0 
L 0 3.5 
" style="stroke: #000000; stroke-width: 0.8"/>
      </defs>
      <g>
       <use xlink:href="#m5fe6212013" x="182.05137" y="328.156438" style="stroke: #000000; stroke-width: 0.8"/>
      </g>
     </g>
     <g id="text_1">
      <!-- AWS Batch -->
      <g transform="translate(154.959964 342.808) scale(0.1 -0.1)">
       <defs>
        <path id="DejaVuSansMono-41" d="M 1925 4109 
L 1259 1722 
L 2591 1722 
L 1925 4109 
z
M 1544 4666 
L 2309 4666 
L 3738 0 
L 3084 0 
L 2741 1216 
L 1106 1216 
L 769 0 
L 116 0 
L 1544 4666 
z
" transform="scale(0.015625)"/>
        <path id="DejaVuSansMono-57" d="M 0 4666 
L 616 4666 
L 1063 878 
L 1594 3384 
L 2253 3384 
L 2791 872 
L 3238 4666 
L 3853 4666 
L 3156 0 
L 2559 0 
L 1925 2772 
L 1294 0 
L 697 0 
L 0 4666 
z
" transform="scale(0.015625)"/>
        <path id="DejaVuSansMono-53" d="M 3163 4506 
L 3163 3866 
Q 2875 4050 2586 4144 
Q 2297 4238 2003 4238 
Q 1556 4238 1297 4030 
Q 1038 3822 1038 3469 
Q 1038 3159 1208 2996 
Q 1378 2834 1844 2725 
L 2175 2650 
Q 2831 2497 3131 2169 
Q 3431 1841 3431 1275 
Q 3431 609 3018 259 
Q 2606 -91 1819 -91 
Q 1491 -91 1159 -20 
Q 828 50 494 191 
L 494 863 
Q 853 634 1173 528 
Q 1494 422 1819 422 
Q 2297 422 2562 636 
Q 2828 850 2828 1234 
Q 2828 1584 2645 1768 
Q 2463 1953 2009 2053 
L 1672 2131 
Q 1022 2278 728 2575 
Q 434 2872 434 3372 
Q 434 3997 854 4373 
Q 1275 4750 1972 4750 
Q 2241 4750 2537 4689 
Q 2834 4628 3163 4506 
z
" transform="scale(0.015625)"/>
        <path id="DejaVuSansMono-20" transform="scale(0.015625)"/>
        <path id="DejaVuSansMono-42" d="M 1153 2228 
L 1153 519 
L 1900 519 
Q 2450 519 2684 711 
Q 2919 903 2919 1344 
Q 2919 1800 2672 2014 
Q 2425 2228 1900 2228 
L 1153 2228 
z
M 1153 4147 
L 1153 2741 
L 1888 2741 
Q 2344 2741 2548 2916 
Q 2753 3091 2753 3481 
Q 2753 3834 2551 3990 
Q 2350 4147 1888 4147 
L 1153 4147 
z
M 519 4666 
L 1900 4666 
Q 2616 4666 3003 4356 
Q 3391 4047 3391 3481 
Q 3391 3053 3186 2806 
Q 2981 2559 2572 2497 
Q 3031 2428 3292 2104 
Q 3553 1781 3553 1281 
Q 3553 647 3137 323 
Q 2722 0 1900 0 
L 519 0 
L 519 4666 
z
" transform="scale(0.015625)"/>
        <path id="DejaVuSansMono-61" d="M 2194 1759 
L 2003 1759 
Q 1500 1759 1245 1582 
Q 991 1406 991 1056 
Q 991 741 1181 566 
Q 1372 391 1709 391 
Q 2184 391 2456 720 
Q 2728 1050 2731 1631 
L 2731 1759 
L 2194 1759 
z
M 3309 1997 
L 3309 0 
L 2731 0 
L 2731 519 
Q 2547 206 2267 57 
Q 1988 -91 1588 -91 
Q 1053 -91 734 211 
Q 416 513 416 1019 
Q 416 1603 808 1906 
Q 1200 2209 1959 2209 
L 2731 2209 
L 2731 2300 
Q 2728 2719 2518 2908 
Q 2309 3097 1850 3097 
Q 1556 3097 1256 3012 
Q 956 2928 672 2766 
L 672 3341 
Q 991 3463 1283 3523 
Q 1575 3584 1850 3584 
Q 2284 3584 2592 3456 
Q 2900 3328 3091 3072 
Q 3209 2916 3259 2686 
Q 3309 2456 3309 1997 
z
" transform="scale(0.015625)"/>
        <path id="DejaVuSansMono-74" d="M 1919 4494 
L 1919 3500 
L 3225 3500 
L 3225 3053 
L 1919 3053 
L 1919 1153 
Q 1919 766 2066 612 
Q 2213 459 2578 459 
L 3225 459 
L 3225 0 
L 2522 0 
Q 1875 0 1609 259 
Q 1344 519 1344 1153 
L 1344 3053 
L 409 3053 
L 409 3500 
L 1344 3500 
L 1344 4494 
L 1919 4494 
z
" transform="scale(0.015625)"/>
        <path id="DejaVuSansMono-63" d="M 3316 178 
Q 3084 44 2839 -23 
Q 2594 -91 2338 -91 
Q 1525 -91 1067 396 
Q 609 884 609 1747 
Q 609 2609 1067 3096 
Q 1525 3584 2338 3584 
Q 2591 3584 2831 3518 
Q 3072 3453 3316 3316 
L 3316 2713 
Q 3088 2916 2858 3006 
Q 2628 3097 2338 3097 
Q 1797 3097 1506 2747 
Q 1216 2397 1216 1747 
Q 1216 1100 1508 748 
Q 1800 397 2338 397 
Q 2638 397 2875 489 
Q 3113 581 3316 775 
L 3316 178 
z
" transform="scale(0.015625)"/>
        <path id="DejaVuSansMono-68" d="M 3284 2169 
L 3284 0 
L 2706 0 
L 2706 2169 
Q 2706 2641 2540 2862 
Q 2375 3084 2022 3084 
Q 1619 3084 1401 2798 
Q 1184 2513 1184 1978 
L 1184 0 
L 609 0 
L 609 4863 
L 1184 4863 
L 1184 2975 
Q 1338 3275 1600 3429 
Q 1863 3584 2222 3584 
Q 2756 3584 3020 3232 
Q 3284 2881 3284 2169 
z
" transform="scale(0.015625)"/>
       </defs>
       <use xlink:href="#DejaVuSansMono-41"/>
       <use xlink:href="#DejaVuSansMono-57" transform="translate(60.205078 0)"/>
       <use xlink:href="#DejaVuSansMono-53" transform="translate(120.410156 0)"/>
       <use xlink:href="#DejaVuSansMono-20" transform="translate(180.615234 0)"/>
       <use xlink:href="#DejaVuSansMono-42" transform="translate(240.820312 0)"/>
       <use xlink:href="#DejaVuSansMono-61" transform="translate(301.025391 0)"/>
       <use xlink:href="#DejaVuSansMono-74" transform="translate(361.230469 0)"/>
       <use xlink:href="#DejaVuSansMono-63" transform="translate(421.435547 0)"/>
       <use xlink:href="#DejaVuSansMono-68" transform="translate(481.640625 0)"/>
      </g>
     </g>
    </g>
    <g id="xtick_2">
     <g id="line2d_2">
      <g>
       <use xlink:href="#m5fe6212013" x="474.013792" y="328.156438" style="stroke: #000000; stroke-width: 0.8"/>
      </g>
     </g>
     <g id="text_2">
      <!-- OKD / K8S+ -->
      <g transform="translate(443.91223 342.808) scale(0.1 -0.1)">
       <defs>
        <path id="DejaVuSansMono-4f" d="M 2828 2328 
Q 2828 3356 2617 3797 
Q 2406 4238 1925 4238 
Q 1447 4238 1236 3797 
Q 1025 3356 1025 2328 
Q 1025 1303 1236 862 
Q 1447 422 1925 422 
Q 2406 422 2617 861 
Q 2828 1300 2828 2328 
z
M 3488 2328 
Q 3488 1109 3102 509 
Q 2716 -91 1925 -91 
Q 1134 -91 750 506 
Q 366 1103 366 2328 
Q 366 3550 752 4150 
Q 1138 4750 1925 4750 
Q 2716 4750 3102 4150 
Q 3488 3550 3488 2328 
z
" transform="scale(0.015625)"/>
        <path id="DejaVuSansMono-4b" d="M 428 4666 
L 1063 4666 
L 1063 2591 
L 3034 4666 
L 3775 4666 
L 1959 2759 
L 3828 0 
L 3066 0 
L 1544 2338 
L 1063 1825 
L 1063 0 
L 428 0 
L 428 4666 
z
" transform="scale(0.015625)"/>
        <path id="DejaVuSansMono-44" d="M 1363 519 
Q 2159 519 2475 911 
Q 2791 1303 2791 2328 
Q 2791 3363 2477 3755 
Q 2163 4147 1363 4147 
L 1063 4147 
L 1063 519 
L 1363 519 
z
M 1375 4666 
Q 2444 4666 2950 4097 
Q 3456 3528 3456 2328 
Q 3456 1134 2950 567 
Q 2444 0 1375 0 
L 428 0 
L 428 4666 
L 1375 4666 
z
" transform="scale(0.015625)"/>
        <path id="DejaVuSansMono-2f" d="M 2778 4666 
L 3372 4666 
L 916 -594 
L 319 -594 
L 2778 4666 
z
" transform="scale(0.015625)"/>
        <path id="DejaVuSansMono-38" d="M 1925 2216 
Q 1503 2216 1273 1980 
Q 1044 1744 1044 1313 
Q 1044 881 1276 642 
Q 1509 403 1925 403 
Q 2350 403 2579 639 
Q 2809 875 2809 1313 
Q 2809 1741 2576 1978 
Q 2344 2216 1925 2216 
z
M 1375 2478 
Q 972 2581 745 2862 
Q 519 3144 519 3541 
Q 519 4097 897 4423 
Q 1275 4750 1925 4750 
Q 2578 4750 2956 4423 
Q 3334 4097 3334 3541 
Q 3334 3144 3107 2862 
Q 2881 2581 2478 2478 
Q 2947 2375 3195 2062 
Q 3444 1750 3444 1253 
Q 3444 622 3041 265 
Q 2638 -91 1925 -91 
Q 1213 -91 811 264 
Q 409 619 409 1247 
Q 409 1747 657 2061 
Q 906 2375 1375 2478 
z
M 1147 3481 
Q 1147 3106 1347 2909 
Q 1547 2713 1925 2713 
Q 2306 2713 2506 2909 
Q 2706 3106 2706 3481 
Q 2706 3863 2507 4063 
Q 2309 4263 1925 4263 
Q 1547 4263 1347 4061 
Q 1147 3859 1147 3481 
z
" transform="scale(0.015625)"/>
        <path id="DejaVuSansMono-2b" d="M 2188 3659 
L 2188 2272 
L 3578 2272 
L 3578 1741 
L 2188 1741 
L 2188 353 
L 1663 353 
L 1663 1741 
L 275 1741 
L 275 2272 
L 1663 2272 
L 1663 3659 
L 2188 3659 
z
" transform="scale(0.015625)"/>
       </defs>
       <use xlink:href="#DejaVuSansMono-4f"/>
       <use xlink:href="#DejaVuSansMono-4b" transform="translate(60.205078 0)"/>
       <use xlink:href="#DejaVuSansMono-44" transform="translate(120.410156 0)"/>
       <use xlink:href="#DejaVuSansMono-20" transform="translate(180.615234 0)"/>
       <use xlink:href="#DejaVuSansMono-2f" transform="translate(240.820312 0)"/>
       <use xlink:href="#DejaVuSansMono-20" transform="translate(301.025391 0)"/>
       <use xlink:href="#DejaVuSansMono-4b" transform="translate(361.230469 0)"/>
       <use xlink:href="#DejaVuSansMono-38" transform="translate(421.435547 0)"/>
       <use xlink:href="#DejaVuSansMono-53" transform="translate(481.640625 0)"/>
       <use xlink:href="#DejaVuSansMono-2b" transform="translate(541.845703 0)"/>
      </g>
     </g>
    </g>
   </g>
   <g id="matplotlib.axis_2">
    <g id="ytick_1">
     <g id="line2d_3">
      <path d="M 47.01875 328.156438 
L 609.046412 328.156438 
" clip-path="url(#p8b964b0aa9)" style="fill: none; stroke: #b0b0b0; stroke-opacity: 0.25; stroke-width: 0.8; stroke-linecap: square"/>
     </g>
     <g id="line2d_4">
      <defs>
       <path id="md03ce9f7c9" d="M 0 0 
L -3.5 0 
" style="stroke: #000000; stroke-width: 0.8"/>
      </defs>
      <g>
       <use xlink:href="#md03ce9f7c9" x="47.01875" y="328.156438" style="stroke: #000000; stroke-width: 0.8"/>
      </g>
     </g>
     <g id="text_3">
      <!-- 0 -->
      <g transform="translate(33.65625 331.955656) scale(0.1 -0.1)">
       <defs>
        <path id="DejaVuSans-30" d="M 2034 4250 
Q 1547 4250 1301 3770 
Q 1056 3291 1056 2328 
Q 1056 1369 1301 889 
Q 1547 409 2034 409 
Q 2525 409 2770 889 
Q 3016 1369 3016 2328 
Q 3016 3291 2770 3770 
Q 2525 4250 2034 4250 
z
M 2034 4750 
Q 2819 4750 3233 4129 
Q 3647 3509 3647 2328 
Q 3647 1150 3233 529 
Q 2819 -91 2034 -91 
Q 1250 -91 836 529 
Q 422 1150 422 2328 
Q 422 3509 836 4129 
Q 1250 4750 2034 4750 
z
" transform="scale(0.015625)"/>
       </defs>
       <use xlink:href="#DejaVuSans-30"/>
      </g>
     </g>
    </g>
    <g id="ytick_2">
     <g id="line2d_5">
      <path d="M 47.01875 291.387438 
L 609.046412 291.387438 
" clip-path="url(#p8b964b0aa9)" style="fill: none; stroke: #b0b0b0; stroke-opacity: 0.25; stroke-width: 0.8; stroke-linecap: square"/>
     </g>
     <g id="line2d_6">
      <g>
       <use xlink:href="#md03ce9f7c9" x="47.01875" y="291.387438" style="stroke: #000000; stroke-width: 0.8"/>
      </g>
     </g>
     <g id="text_4">
      <!-- 20 -->
      <g transform="translate(27.29375 295.186656) scale(0.1 -0.1)">
       <defs>
        <path id="DejaVuSans-32" d="M 1228 531 
L 3431 531 
L 3431 0 
L 469 0 
L 469 531 
Q 828 903 1448 1529 
Q 2069 2156 2228 2338 
Q 2531 2678 2651 2914 
Q 2772 3150 2772 3378 
Q 2772 3750 2511 3984 
Q 2250 4219 1831 4219 
Q 1534 4219 1204 4116 
Q 875 4013 500 3803 
L 500 4441 
Q 881 4594 1212 4672 
Q 1544 4750 1819 4750 
Q 2544 4750 2975 4387 
Q 3406 4025 3406 3419 
Q 3406 3131 3298 2873 
Q 3191 2616 2906 2266 
Q 2828 2175 2409 1742 
Q 1991 1309 1228 531 
z
" transform="scale(0.015625)"/>
       </defs>
       <use xlink:href="#DejaVuSans-32"/>
       <use xlink:href="#DejaVuSans-30" transform="translate(63.623047 0)"/>
      </g>
     </g>
    </g>
    <g id="ytick_3">
     <g id="line2d_7">
      <path d="M 47.01875 254.618438 
L 609.046412 254.618438 
" clip-path="url(#p8b964b0aa9)" style="fill: none; stroke: #b0b0b0; stroke-opacity: 0.25; stroke-width: 0.8; stroke-linecap: square"/>
     </g>
     <g id="line2d_8">
      <g>
       <use xlink:href="#md03ce9f7c9" x="47.01875" y="254.618438" style="stroke: #000000; stroke-width: 0.8"/>
      </g>
     </g>
     <g id="text_5">
      <!-- 40 -->
      <g transform="translate(27.29375 258.417656) scale(0.1 -0.1)">
       <defs>
        <path id="DejaVuSans-34" d="M 2419 4116 
L 825 1625 
L 2419 1625 
L 2419 4116 
z
M 2253 4666 
L 3047 4666 
L 3047 1625 
L 3713 1625 
L 3713 1100 
L 3047 1100 
L 3047 0 
L 2419 0 
L 2419 1100 
L 313 1100 
L 313 1709 
L 2253 4666 
z
" transform="scale(0.015625)"/>
       </defs>
       <use xlink:href="#DejaVuSans-34"/>
       <use xlink:href="#DejaVuSans-30" transform="translate(63.623047 0)"/>
      </g>
     </g>
    </g>
    <g id="ytick_4">
     <g id="line2d_9">
      <path d="M 47.01875 217.849438 
L 609.046412 217.849438 
" clip-path="url(#p8b964b0aa9)" style="fill: none; stroke: #b0b0b0; stroke-opacity: 0.25; stroke-width: 0.8; stroke-linecap: square"/>
     </g>
     <g id="line2d_10">
      <g>
       <use xlink:href="#md03ce9f7c9" x="47.01875" y="217.849438" style="stroke: #000000; stroke-width: 0.8"/>
      </g>
     </g>
     <g id="text_6">
      <!-- 60 -->
      <g transform="translate(27.29375 221.648656) scale(0.1 -0.1)">
       <defs>
        <path id="DejaVuSans-36" d="M 2113 2584 
Q 1688 2584 1439 2293 
Q 1191 2003 1191 1497 
Q 1191 994 1439 701 
Q 1688 409 2113 409 
Q 2538 409 2786 701 
Q 3034 994 3034 1497 
Q 3034 2003 2786 2293 
Q 2538 2584 2113 2584 
z
M 3366 4563 
L 3366 3988 
Q 3128 4100 2886 4159 
Q 2644 4219 2406 4219 
Q 1781 4219 1451 3797 
Q 1122 3375 1075 2522 
Q 1259 2794 1537 2939 
Q 1816 3084 2150 3084 
Q 2853 3084 3261 2657 
Q 3669 2231 3669 1497 
Q 3669 778 3244 343 
Q 2819 -91 2113 -91 
Q 1303 -91 875 529 
Q 447 1150 447 2328 
Q 447 3434 972 4092 
Q 1497 4750 2381 4750 
Q 2619 4750 2861 4703 
Q 3103 4656 3366 4563 
z
" transform="scale(0.015625)"/>
       </defs>
       <use xlink:href="#DejaVuSans-36"/>
       <use xlink:href="#DejaVuSans-30" transform="translate(63.623047 0)"/>
      </g>
     </g>
    </g>
    <g id="ytick_5">
     <g id="line2d_11">
      <path d="M 47.01875 181.080438 
L 609.046412 181.080438 
" clip-path="url(#p8b964b0aa9)" style="fill: none; stroke: #b0b0b0; stroke-opacity: 0.25; stroke-width: 0.8; stroke-linecap: square"/>
     </g>
     <g id="line2d_12">
      <g>
       <use xlink:href="#md03ce9f7c9" x="47.01875" y="181.080438" style="stroke: #000000; stroke-width: 0.8"/>
      </g>
     </g>
     <g id="text_7">
      <!-- 80 -->
      <g transform="translate(27.29375 184.879656) scale(0.1 -0.1)">
       <defs>
        <path id="DejaVuSans-38" d="M 2034 2216 
Q 1584 2216 1326 1975 
Q 1069 1734 1069 1313 
Q 1069 891 1326 650 
Q 1584 409 2034 409 
Q 2484 409 2743 651 
Q 3003 894 3003 1313 
Q 3003 1734 2745 1975 
Q 2488 2216 2034 2216 
z
M 1403 2484 
Q 997 2584 770 2862 
Q 544 3141 544 3541 
Q 544 4100 942 4425 
Q 1341 4750 2034 4750 
Q 2731 4750 3128 4425 
Q 3525 4100 3525 3541 
Q 3525 3141 3298 2862 
Q 3072 2584 2669 2484 
Q 3125 2378 3379 2068 
Q 3634 1759 3634 1313 
Q 3634 634 3220 271 
Q 2806 -91 2034 -91 
Q 1263 -91 848 271 
Q 434 634 434 1313 
Q 434 1759 690 2068 
Q 947 2378 1403 2484 
z
M 1172 3481 
Q 1172 3119 1398 2916 
Q 1625 2713 2034 2713 
Q 2441 2713 2670 2916 
Q 2900 3119 2900 3481 
Q 2900 3844 2670 4047 
Q 2441 4250 2034 4250 
Q 1625 4250 1398 4047 
Q 1172 3844 1172 3481 
z
" transform="scale(0.015625)"/>
       </defs>
       <use xlink:href="#DejaVuSans-38"/>
       <use xlink:href="#DejaVuSans-30" transform="translate(63.623047 0)"/>
      </g>
     </g>
    </g>
    <g id="ytick_6">
     <g id="line2d_13">
      <path d="M 47.01875 144.311438 
L 609.046412 144.311438 
" clip-path="url(#p8b964b0aa9)" style="fill: none; stroke: #b0b0b0; stroke-opacity: 0.25; stroke-width: 0.8; stroke-linecap: square"/>
     </g>
     <g id="line2d_14">
      <g>
       <use xlink:href="#md03ce9f7c9" x="47.01875" y="144.311438" style="stroke: #000000; stroke-width: 0.8"/>
      </g>
     </g>
     <g id="text_8">
      <!-- 100 -->
      <g transform="translate(20.93125 148.110656) scale(0.1 -0.1)">
       <defs>
        <path id="DejaVuSans-31" d="M 794 531 
L 1825 531 
L 1825 4091 
L 703 3866 
L 703 4441 
L 1819 4666 
L 2450 4666 
L 2450 531 
L 3481 531 
L 3481 0 
L 794 0 
L 794 531 
z
" transform="scale(0.015625)"/>
       </defs>
       <use xlink:href="#DejaVuSans-31"/>
       <use xlink:href="#DejaVuSans-30" transform="translate(63.623047 0)"/>
       <use xlink:href="#DejaVuSans-30" transform="translate(127.246094 0)"/>
      </g>
     </g>
    </g>
    <g id="ytick_7">
     <g id="line2d_15">
      <path d="M 47.01875 107.542438 
L 609.046412 107.542438 
" clip-path="url(#p8b964b0aa9)" style="fill: none; stroke: #b0b0b0; stroke-opacity: 0.25; stroke-width: 0.8; stroke-linecap: square"/>
     </g>
     <g id="line2d_16">
      <g>
       <use xlink:href="#md03ce9f7c9" x="47.01875" y="107.542438" style="stroke: #000000; stroke-width: 0.8"/>
      </g>
     </g>
     <g id="text_9">
      <!-- 120 -->
      <g transform="translate(20.93125 111.341656) scale(0.1 -0.1)">
       <use xlink:href="#DejaVuSans-31"/>
       <use xlink:href="#DejaVuSans-32" transform="translate(63.623047 0)"/>
       <use xlink:href="#DejaVuSans-30" transform="translate(127.246094 0)"/>
      </g>
     </g>
    </g>
    <g id="ytick_8">
     <g id="line2d_17">
      <path d="M 47.01875 70.773438 
L 609.046412 70.773438 
" clip-path="url(#p8b964b0aa9)" style="fill: none; stroke: #b0b0b0; stroke-opacity: 0.25; stroke-width: 0.8; stroke-linecap: square"/>
     </g>
     <g id="line2d_18">
      <g>
       <use xlink:href="#md03ce9f7c9" x="47.01875" y="70.773438" style="stroke: #000000; stroke-width: 0.8"/>
      </g>
     </g>
     <g id="text_10">
      <!-- 140 -->
      <g transform="translate(20.93125 74.572656) scale(0.1 -0.1)">
       <use xlink:href="#DejaVuSans-31"/>
       <use xlink:href="#DejaVuSans-34" transform="translate(63.623047 0)"/>
       <use xlink:href="#DejaVuSans-30" transform="translate(127.246094 0)"/>
      </g>
     </g>
    </g>
    <g id="ytick_9">
     <g id="line2d_19">
      <path d="M 47.01875 34.004437 
L 609.046412 34.004437 
" clip-path="url(#p8b964b0aa9)" style="fill: none; stroke: #b0b0b0; stroke-opacity: 0.25; stroke-width: 0.8; stroke-linecap: square"/>
     </g>
     <g id="line2d_20">
      <g>
       <use xlink:href="#md03ce9f7c9" x="47.01875" y="34.004437" style="stroke: #000000; stroke-width: 0.8"/>
      </g>
     </g>
     <g id="text_11">
      <!-- 160 -->
      <g transform="translate(20.93125 37.803656) scale(0.1 -0.1)">
       <use xlink:href="#DejaVuSans-31"/>
       <use xlink:href="#DejaVuSans-36" transform="translate(63.623047 0)"/>
       <use xlink:href="#DejaVuSans-30" transform="translate(127.246094 0)"/>
      </g>
     </g>
    </g>
    <g id="text_12">
     <!-- percentage -->
     <g transform="translate(14.782813 211.182) rotate(-90) scale(0.1 -0.1)">
      <defs>
       <path id="DejaVuSansMono-70" d="M 1172 441 
L 1172 -1331 
L 594 -1331 
L 594 3500 
L 1172 3500 
L 1172 3053 
Q 1316 3313 1555 3448 
Q 1794 3584 2106 3584 
Q 2741 3584 3102 3093 
Q 3463 2603 3463 1734 
Q 3463 881 3100 395 
Q 2738 -91 2106 -91 
Q 1788 -91 1548 45 
Q 1309 181 1172 441 
z
M 2859 1747 
Q 2859 2416 2648 2756 
Q 2438 3097 2022 3097 
Q 1603 3097 1387 2755 
Q 1172 2413 1172 1747 
Q 1172 1084 1387 740 
Q 1603 397 2022 397 
Q 2438 397 2648 737 
Q 2859 1078 2859 1747 
z
" transform="scale(0.015625)"/>
       <path id="DejaVuSansMono-65" d="M 3475 1894 
L 3475 1613 
L 984 1613 
L 984 1594 
Q 984 1022 1282 709 
Q 1581 397 2125 397 
Q 2400 397 2700 484 
Q 3000 572 3341 750 
L 3341 178 
Q 3013 44 2708 -23 
Q 2403 -91 2119 -91 
Q 1303 -91 843 398 
Q 384 888 384 1747 
Q 384 2584 834 3084 
Q 1284 3584 2034 3584 
Q 2703 3584 3089 3131 
Q 3475 2678 3475 1894 
z
M 2900 2063 
Q 2888 2569 2661 2833 
Q 2434 3097 2009 3097 
Q 1594 3097 1325 2822 
Q 1056 2547 1006 2059 
L 2900 2063 
z
" transform="scale(0.015625)"/>
       <path id="DejaVuSansMono-72" d="M 3609 2778 
Q 3425 2922 3234 2987 
Q 3044 3053 2816 3053 
Q 2278 3053 1993 2715 
Q 1709 2378 1709 1741 
L 1709 0 
L 1131 0 
L 1131 3500 
L 1709 3500 
L 1709 2816 
Q 1853 3188 2151 3386 
Q 2450 3584 2859 3584 
Q 3072 3584 3256 3531 
Q 3441 3478 3609 3366 
L 3609 2778 
z
" transform="scale(0.015625)"/>
       <path id="DejaVuSansMono-6e" d="M 3284 2169 
L 3284 0 
L 2706 0 
L 2706 2169 
Q 2706 2641 2540 2862 
Q 2375 3084 2022 3084 
Q 1619 3084 1401 2798 
Q 1184 2513 1184 1978 
L 1184 0 
L 609 0 
L 609 3500 
L 1184 3500 
L 1184 2975 
Q 1338 3275 1600 3429 
Q 1863 3584 2222 3584 
Q 2756 3584 3020 3232 
Q 3284 2881 3284 2169 
z
" transform="scale(0.015625)"/>
       <path id="DejaVuSansMono-67" d="M 2681 1778 
Q 2681 2425 2470 2761 
Q 2259 3097 1856 3097 
Q 1434 3097 1212 2761 
Q 991 2425 991 1778 
Q 991 1131 1214 792 
Q 1438 453 1863 453 
Q 2259 453 2470 793 
Q 2681 1134 2681 1778 
z
M 3256 225 
Q 3256 -563 2884 -969 
Q 2513 -1375 1791 -1375 
Q 1553 -1375 1293 -1331 
Q 1034 -1288 775 -1203 
L 775 -634 
Q 1081 -778 1331 -847 
Q 1581 -916 1791 -916 
Q 2256 -916 2468 -662 
Q 2681 -409 2681 141 
L 2681 166 
L 2681 556 
Q 2544 263 2306 119 
Q 2069 -25 1728 -25 
Q 1116 -25 750 465 
Q 384 956 384 1778 
Q 384 2603 750 3093 
Q 1116 3584 1728 3584 
Q 2066 3584 2300 3450 
Q 2534 3316 2681 3034 
L 2681 3488 
L 3256 3488 
L 3256 225 
z
" transform="scale(0.015625)"/>
      </defs>
      <use xlink:href="#DejaVuSansMono-70"/>
      <use xlink:href="#DejaVuSansMono-65" transform="translate(60.205078 0)"/>
      <use xlink:href="#DejaVuSansMono-72" transform="translate(120.410156 0)"/>
      <use xlink:href="#DejaVuSansMono-63" transform="translate(180.615234 0)"/>
      <use xlink:href="#DejaVuSansMono-65" transform="translate(240.820312 0)"/>
      <use xlink:href="#DejaVuSansMono-6e" transform="translate(301.025391 0)"/>
      <use xlink:href="#DejaVuSansMono-74" transform="translate(361.230469 0)"/>
      <use xlink:href="#DejaVuSansMono-61" transform="translate(421.435547 0)"/>
      <use xlink:href="#DejaVuSansMono-67" transform="translate(481.640625 0)"/>
      <use xlink:href="#DejaVuSansMono-65" transform="translate(541.845703 0)"/>
     </g>
    </g>
   </g>
   <g id="patch_9">
    <path d="M 47.01875 328.156438 
L 47.01875 34.004437 
" style="fill: none; stroke: #000000; stroke-width: 0.8; stroke-linejoin: miter; stroke-linecap: square"/>
   </g>
   <g id="patch_10">
    <path d="M 609.046412 328.156438 
L 609.046412 34.004437 
" style="fill: none; stroke: #000000; stroke-width: 0.8; stroke-linejoin: miter; stroke-linecap: square"/>
   </g>
   <g id="patch_11">
    <path d="M 47.01875 328.156438 
L 609.046412 328.156438 
" style="fill: none; stroke: #000000; stroke-width: 0.8; stroke-linejoin: miter; stroke-linecap: square"/>
   </g>
   <g id="patch_12">
    <path d="M 47.01875 34.004437 
L 609.046412 34.004437 
" style="fill: none; stroke: #000000; stroke-width: 0.8; stroke-linejoin: miter; stroke-linecap: square"/>
   </g>
   <g id="patch_13">
    <path d="M 559.77624 93.834847 
Q 517.757404 118.565573 476.509395 142.842618 
" style="fill: none; stroke: #a32d2d; stroke-width: 0.8; stroke-linecap: round"/>
    <path d="M 480.078757 142.59838 
L 476.509395 142.842618 
L 478.455622 139.840586 
" style="fill: none; stroke: #a32d2d; stroke-width: 0.8; stroke-linecap: round"/>
   </g>
   <g id="text_13">
    <!-- actual: 201.1% -->
    <g style="fill: #a32d2d" transform="translate(547.004398 71.241438) scale(0.08 -0.08)">
     <defs>
      <path id="DejaVuSans-61" d="M 2194 1759 
Q 1497 1759 1228 1600 
Q 959 1441 959 1056 
Q 959 750 1161 570 
Q 1363 391 1709 391 
Q 2188 391 2477 730 
Q 2766 1069 2766 1631 
L 2766 1759 
L 2194 1759 
z
M 3341 1997 
L 3341 0 
L 2766 0 
L 2766 531 
Q 2569 213 2275 61 
Q 1981 -91 1556 -91 
Q 1019 -91 701 211 
Q 384 513 384 1019 
Q 384 1609 779 1909 
Q 1175 2209 1959 2209 
L 2766 2209 
L 2766 2266 
Q 2766 2663 2505 2880 
Q 2244 3097 1772 3097 
Q 1472 3097 1187 3025 
Q 903 2953 641 2809 
L 641 3341 
Q 956 3463 1253 3523 
Q 1550 3584 1831 3584 
Q 2591 3584 2966 3190 
Q 3341 2797 3341 1997 
z
" transform="scale(0.015625)"/>
      <path id="DejaVuSans-63" d="M 3122 3366 
L 3122 2828 
Q 2878 2963 2633 3030 
Q 2388 3097 2138 3097 
Q 1578 3097 1268 2742 
Q 959 2388 959 1747 
Q 959 1106 1268 751 
Q 1578 397 2138 397 
Q 2388 397 2633 464 
Q 2878 531 3122 666 
L 3122 134 
Q 2881 22 2623 -34 
Q 2366 -91 2075 -91 
Q 1284 -91 818 406 
Q 353 903 353 1747 
Q 353 2603 823 3093 
Q 1294 3584 2113 3584 
Q 2378 3584 2631 3529 
Q 2884 3475 3122 3366 
z
" transform="scale(0.015625)"/>
      <path id="DejaVuSans-74" d="M 1172 4494 
L 1172 3500 
L 2356 3500 
L 2356 3053 
L 1172 3053 
L 1172 1153 
Q 1172 725 1289 603 
Q 1406 481 1766 481 
L 2356 481 
L 2356 0 
L 1766 0 
Q 1100 0 847 248 
Q 594 497 594 1153 
L 594 3053 
L 172 3053 
L 172 3500 
L 594 3500 
L 594 4494 
L 1172 4494 
z
" transform="scale(0.015625)"/>
      <path id="DejaVuSans-75" d="M 544 1381 
L 544 3500 
L 1119 3500 
L 1119 1403 
Q 1119 906 1312 657 
Q 1506 409 1894 409 
Q 2359 409 2629 706 
Q 2900 1003 2900 1516 
L 2900 3500 
L 3475 3500 
L 3475 0 
L 2900 0 
L 2900 538 
Q 2691 219 2414 64 
Q 2138 -91 1772 -91 
Q 1169 -91 856 284 
Q 544 659 544 1381 
z
M 1991 3584 
L 1991 3584 
z
" transform="scale(0.015625)"/>
      <path id="DejaVuSans-6c" d="M 603 4863 
L 1178 4863 
L 1178 0 
L 603 0 
L 603 4863 
z
" transform="scale(0.015625)"/>
      <path id="DejaVuSans-3a" d="M 750 794 
L 1409 794 
L 1409 0 
L 750 0 
L 750 794 
z
M 750 3309 
L 1409 3309 
L 1409 2516 
L 750 2516 
L 750 3309 
z
" transform="scale(0.015625)"/>
      <path id="DejaVuSans-20" transform="scale(0.015625)"/>
      <path id="DejaVuSans-2e" d="M 684 794 
L 1344 794 
L 1344 0 
L 684 0 
L 684 794 
z
" transform="scale(0.015625)"/>
      <path id="DejaVuSans-25" d="M 4653 2053 
Q 4381 2053 4226 1822 
Q 4072 1591 4072 1178 
Q 4072 772 4226 539 
Q 4381 306 4653 306 
Q 4919 306 5073 539 
Q 5228 772 5228 1178 
Q 5228 1588 5073 1820 
Q 4919 2053 4653 2053 
z
M 4653 2450 
Q 5147 2450 5437 2106 
Q 5728 1763 5728 1178 
Q 5728 594 5436 251 
Q 5144 -91 4653 -91 
Q 4153 -91 3862 251 
Q 3572 594 3572 1178 
Q 3572 1766 3864 2108 
Q 4156 2450 4653 2450 
z
M 1428 4353 
Q 1159 4353 1004 4120 
Q 850 3888 850 3481 
Q 850 3069 1003 2837 
Q 1156 2606 1428 2606 
Q 1700 2606 1854 2837 
Q 2009 3069 2009 3481 
Q 2009 3884 1853 4118 
Q 1697 4353 1428 4353 
z
M 4250 4750 
L 4750 4750 
L 1831 -91 
L 1331 -91 
L 4250 4750 
z
M 1428 4750 
Q 1922 4750 2215 4408 
Q 2509 4066 2509 3481 
Q 2509 2891 2217 2550 
Q 1925 2209 1428 2209 
Q 931 2209 642 2551 
Q 353 2894 353 3481 
Q 353 4063 643 4406 
Q 934 4750 1428 4750 
z
" transform="scale(0.015625)"/>
     </defs>
     <use xlink:href="#DejaVuSans-61"/>
     <use xlink:href="#DejaVuSans-63" transform="translate(61.279297 0)"/>
     <use xlink:href="#DejaVuSans-74" transform="translate(116.259766 0)"/>
     <use xlink:href="#DejaVuSans-75" transform="translate(155.46875 0)"/>
     <use xlink:href="#DejaVuSans-61" transform="translate(218.847656 0)"/>
     <use xlink:href="#DejaVuSans-6c" transform="translate(280.126953 0)"/>
     <use xlink:href="#DejaVuSans-3a" transform="translate(307.910156 0)"/>
     <use xlink:href="#DejaVuSans-20" transform="translate(341.601562 0)"/>
     <use xlink:href="#DejaVuSans-32" transform="translate(373.388672 0)"/>
     <use xlink:href="#DejaVuSans-30" transform="translate(437.011719 0)"/>
     <use xlink:href="#DejaVuSans-31" transform="translate(500.634766 0)"/>
     <use xlink:href="#DejaVuSans-2e" transform="translate(564.257812 0)"/>
     <use xlink:href="#DejaVuSans-31" transform="translate(596.044922 0)"/>
     <use xlink:href="#DejaVuSans-25" transform="translate(659.667969 0)"/>
    </g>
    <!-- (soft limit exceeded -->
    <g style="fill: #a32d2d" transform="translate(547.004398 80.199687) scale(0.08 -0.08)">
     <defs>
      <path id="DejaVuSans-28" d="M 1984 4856 
Q 1566 4138 1362 3434 
Q 1159 2731 1159 2009 
Q 1159 1288 1364 580 
Q 1569 -128 1984 -844 
L 1484 -844 
Q 1016 -109 783 600 
Q 550 1309 550 2009 
Q 550 2706 781 3412 
Q 1013 4119 1484 4856 
L 1984 4856 
z
" transform="scale(0.015625)"/>
      <path id="DejaVuSans-73" d="M 2834 3397 
L 2834 2853 
Q 2591 2978 2328 3040 
Q 2066 3103 1784 3103 
Q 1356 3103 1142 2972 
Q 928 2841 928 2578 
Q 928 2378 1081 2264 
Q 1234 2150 1697 2047 
L 1894 2003 
Q 2506 1872 2764 1633 
Q 3022 1394 3022 966 
Q 3022 478 2636 193 
Q 2250 -91 1575 -91 
Q 1294 -91 989 -36 
Q 684 19 347 128 
L 347 722 
Q 666 556 975 473 
Q 1284 391 1588 391 
Q 1994 391 2212 530 
Q 2431 669 2431 922 
Q 2431 1156 2273 1281 
Q 2116 1406 1581 1522 
L 1381 1569 
Q 847 1681 609 1914 
Q 372 2147 372 2553 
Q 372 3047 722 3315 
Q 1072 3584 1716 3584 
Q 2034 3584 2315 3537 
Q 2597 3491 2834 3397 
z
" transform="scale(0.015625)"/>
      <path id="DejaVuSans-6f" d="M 1959 3097 
Q 1497 3097 1228 2736 
Q 959 2375 959 1747 
Q 959 1119 1226 758 
Q 1494 397 1959 397 
Q 2419 397 2687 759 
Q 2956 1122 2956 1747 
Q 2956 2369 2687 2733 
Q 2419 3097 1959 3097 
z
M 1959 3584 
Q 2709 3584 3137 3096 
Q 3566 2609 3566 1747 
Q 3566 888 3137 398 
Q 2709 -91 1959 -91 
Q 1206 -91 779 398 
Q 353 888 353 1747 
Q 353 2609 779 3096 
Q 1206 3584 1959 3584 
z
" transform="scale(0.015625)"/>
      <path id="DejaVuSans-66" d="M 2375 4863 
L 2375 4384 
L 1825 4384 
Q 1516 4384 1395 4259 
Q 1275 4134 1275 3809 
L 1275 3500 
L 2222 3500 
L 2222 3053 
L 1275 3053 
L 1275 0 
L 697 0 
L 697 3053 
L 147 3053 
L 147 3500 
L 697 3500 
L 697 3744 
Q 697 4328 969 4595 
Q 1241 4863 1831 4863 
L 2375 4863 
z
" transform="scale(0.015625)"/>
      <path id="DejaVuSans-69" d="M 603 3500 
L 1178 3500 
L 1178 0 
L 603 0 
L 603 3500 
z
M 603 4863 
L 1178 4863 
L 1178 4134 
L 603 4134 
L 603 4863 
z
" transform="scale(0.015625)"/>
      <path id="DejaVuSans-6d" d="M 3328 2828 
Q 3544 3216 3844 3400 
Q 4144 3584 4550 3584 
Q 5097 3584 5394 3201 
Q 5691 2819 5691 2113 
L 5691 0 
L 5113 0 
L 5113 2094 
Q 5113 2597 4934 2840 
Q 4756 3084 4391 3084 
Q 3944 3084 3684 2787 
Q 3425 2491 3425 1978 
L 3425 0 
L 2847 0 
L 2847 2094 
Q 2847 2600 2669 2842 
Q 2491 3084 2119 3084 
Q 1678 3084 1418 2786 
Q 1159 2488 1159 1978 
L 1159 0 
L 581 0 
L 581 3500 
L 1159 3500 
L 1159 2956 
Q 1356 3278 1631 3431 
Q 1906 3584 2284 3584 
Q 2666 3584 2933 3390 
Q 3200 3197 3328 2828 
z
" transform="scale(0.015625)"/>
      <path id="DejaVuSans-65" d="M 3597 1894 
L 3597 1613 
L 953 1613 
Q 991 1019 1311 708 
Q 1631 397 2203 397 
Q 2534 397 2845 478 
Q 3156 559 3463 722 
L 3463 178 
Q 3153 47 2828 -22 
Q 2503 -91 2169 -91 
Q 1331 -91 842 396 
Q 353 884 353 1716 
Q 353 2575 817 3079 
Q 1281 3584 2069 3584 
Q 2775 3584 3186 3129 
Q 3597 2675 3597 1894 
z
M 3022 2063 
Q 3016 2534 2758 2815 
Q 2500 3097 2075 3097 
Q 1594 3097 1305 2825 
Q 1016 2553 972 2059 
L 3022 2063 
z
" transform="scale(0.015625)"/>
      <path id="DejaVuSans-78" d="M 3513 3500 
L 2247 1797 
L 3578 0 
L 2900 0 
L 1881 1375 
L 863 0 
L 184 0 
L 1544 1831 
L 300 3500 
L 978 3500 
L 1906 2253 
L 2834 3500 
L 3513 3500 
z
" transform="scale(0.015625)"/>
      <path id="DejaVuSans-64" d="M 2906 2969 
L 2906 4863 
L 3481 4863 
L 3481 0 
L 2906 0 
L 2906 525 
Q 2725 213 2448 61 
Q 2172 -91 1784 -91 
Q 1150 -91 751 415 
Q 353 922 353 1747 
Q 353 2572 751 3078 
Q 1150 3584 1784 3584 
Q 2172 3584 2448 3432 
Q 2725 3281 2906 2969 
z
M 947 1747 
Q 947 1113 1208 752 
Q 1469 391 1925 391 
Q 2381 391 2643 752 
Q 2906 1113 2906 1747 
Q 2906 2381 2643 2742 
Q 2381 3103 1925 3103 
Q 1469 3103 1208 2742 
Q 947 2381 947 1747 
z
" transform="scale(0.015625)"/>
     </defs>
     <use xlink:href="#DejaVuSans-28"/>
     <use xlink:href="#DejaVuSans-73" transform="translate(39.013672 0)"/>
     <use xlink:href="#DejaVuSans-6f" transform="translate(91.113281 0)"/>
     <use xlink:href="#DejaVuSans-66" transform="translate(152.294922 0)"/>
     <use xlink:href="#DejaVuSans-74" transform="translate(185.75 0)"/>
     <use xlink:href="#DejaVuSans-20" transform="translate(224.958984 0)"/>
     <use xlink:href="#DejaVuSans-6c" transform="translate(256.746094 0)"/>
     <use xlink:href="#DejaVuSans-69" transform="translate(284.529297 0)"/>
     <use xlink:href="#DejaVuSans-6d" transform="translate(312.3125 0)"/>
     <use xlink:href="#DejaVuSans-69" transform="translate(409.724609 0)"/>
     <use xlink:href="#DejaVuSans-74" transform="translate(437.507812 0)"/>
     <use xlink:href="#DejaVuSans-20" transform="translate(476.716797 0)"/>
     <use xlink:href="#DejaVuSans-65" transform="translate(508.503906 0)"/>
     <use xlink:href="#DejaVuSans-78" transform="translate(568.277344 0)"/>
     <use xlink:href="#DejaVuSans-63" transform="translate(625.707031 0)"/>
     <use xlink:href="#DejaVuSans-65" transform="translate(680.6875 0)"/>
     <use xlink:href="#DejaVuSans-65" transform="translate(742.210938 0)"/>
     <use xlink:href="#DejaVuSans-64" transform="translate(803.734375 0)"/>
     <use xlink:href="#DejaVuSans-65" transform="translate(867.210938 0)"/>
     <use xlink:href="#DejaVuSans-64" transform="translate(928.734375 0)"/>
    </g>
    <!-- by design) -->
    <g style="fill: #a32d2d" transform="translate(547.004398 89.157938) scale(0.08 -0.08)">
     <defs>
      <path id="DejaVuSans-62" d="M 3116 1747 
Q 3116 2381 2855 2742 
Q 2594 3103 2138 3103 
Q 1681 3103 1420 2742 
Q 1159 2381 1159 1747 
Q 1159 1113 1420 752 
Q 1681 391 2138 391 
Q 2594 391 2855 752 
Q 3116 1113 3116 1747 
z
M 1159 2969 
Q 1341 3281 1617 3432 
Q 1894 3584 2278 3584 
Q 2916 3584 3314 3078 
Q 3713 2572 3713 1747 
Q 3713 922 3314 415 
Q 2916 -91 2278 -91 
Q 1894 -91 1617 61 
Q 1341 213 1159 525 
L 1159 0 
L 581 0 
L 581 4863 
L 1159 4863 
L 1159 2969 
z
" transform="scale(0.015625)"/>
      <path id="DejaVuSans-79" d="M 2059 -325 
Q 1816 -950 1584 -1140 
Q 1353 -1331 966 -1331 
L 506 -1331 
L 506 -850 
L 844 -850 
Q 1081 -850 1212 -737 
Q 1344 -625 1503 -206 
L 1606 56 
L 191 3500 
L 800 3500 
L 1894 763 
L 2988 3500 
L 3597 3500 
L 2059 -325 
z
" transform="scale(0.015625)"/>
      <path id="DejaVuSans-67" d="M 2906 1791 
Q 2906 2416 2648 2759 
Q 2391 3103 1925 3103 
Q 1463 3103 1205 2759 
Q 947 2416 947 1791 
Q 947 1169 1205 825 
Q 1463 481 1925 481 
Q 2391 481 2648 825 
Q 2906 1169 2906 1791 
z
M 3481 434 
Q 3481 -459 3084 -895 
Q 2688 -1331 1869 -1331 
Q 1566 -1331 1297 -1286 
Q 1028 -1241 775 -1147 
L 775 -588 
Q 1028 -725 1275 -790 
Q 1522 -856 1778 -856 
Q 2344 -856 2625 -561 
Q 2906 -266 2906 331 
L 2906 616 
Q 2728 306 2450 153 
Q 2172 0 1784 0 
Q 1141 0 747 490 
Q 353 981 353 1791 
Q 353 2603 747 3093 
Q 1141 3584 1784 3584 
Q 2172 3584 2450 3431 
Q 2728 3278 2906 2969 
L 2906 3500 
L 3481 3500 
L 3481 434 
z
" transform="scale(0.015625)"/>
      <path id="DejaVuSans-6e" d="M 3513 2113 
L 3513 0 
L 2938 0 
L 2938 2094 
Q 2938 2591 2744 2837 
Q 2550 3084 2163 3084 
Q 1697 3084 1428 2787 
Q 1159 2491 1159 1978 
L 1159 0 
L 581 0 
L 581 3500 
L 1159 3500 
L 1159 2956 
Q 1366 3272 1645 3428 
Q 1925 3584 2291 3584 
Q 2894 3584 3203 3211 
Q 3513 2838 3513 2113 
z
" transform="scale(0.015625)"/>
      <path id="DejaVuSans-29" d="M 513 4856 
L 1013 4856 
Q 1481 4119 1714 3412 
Q 1947 2706 1947 2009 
Q 1947 1309 1714 600 
Q 1481 -109 1013 -844 
L 513 -844 
Q 928 -128 1133 580 
Q 1338 1288 1338 2009 
Q 1338 2731 1133 3434 
Q 928 4138 513 4856 
z
" transform="scale(0.015625)"/>
     </defs>
     <use xlink:href="#DejaVuSans-62"/>
     <use xlink:href="#DejaVuSans-79" transform="translate(63.476562 0)"/>
     <use xlink:href="#DejaVuSans-20" transform="translate(122.65625 0)"/>
     <use xlink:href="#DejaVuSans-64" transform="translate(154.443359 0)"/>
     <use xlink:href="#DejaVuSans-65" transform="translate(217.919922 0)"/>
     <use xlink:href="#DejaVuSans-73" transform="translate(279.443359 0)"/>
     <use xlink:href="#DejaVuSans-69" transform="translate(331.542969 0)"/>
     <use xlink:href="#DejaVuSans-67" transform="translate(359.326172 0)"/>
     <use xlink:href="#DejaVuSans-6e" transform="translate(422.802734 0)"/>
     <use xlink:href="#DejaVuSans-29" transform="translate(486.181641 0)"/>
    </g>
   </g>
   <g id="text_14">
    <!-- 46.3% -->
    <g transform="translate(97.02014 239.534002) scale(0.08 -0.08)">
     <defs>
      <path id="DejaVuSansMono-34" d="M 2297 4091 
L 825 1625 
L 2297 1625 
L 2297 4091 
z
M 2194 4666 
L 2925 4666 
L 2925 1625 
L 3547 1625 
L 3547 1113 
L 2925 1113 
L 2925 0 
L 2297 0 
L 2297 1113 
L 319 1113 
L 319 1709 
L 2194 4666 
z
" transform="scale(0.015625)"/>
      <path id="DejaVuSansMono-36" d="M 3097 4563 
L 3097 3981 
Q 2900 4097 2678 4158 
Q 2456 4219 2216 4219 
Q 1616 4219 1306 3767 
Q 997 3316 997 2438 
Q 1147 2750 1412 2917 
Q 1678 3084 2022 3084 
Q 2697 3084 3067 2670 
Q 3438 2256 3438 1497 
Q 3438 741 3056 325 
Q 2675 -91 1984 -91 
Q 1172 -91 794 492 
Q 416 1075 416 2328 
Q 416 3509 870 4129 
Q 1325 4750 2188 4750 
Q 2419 4750 2650 4701 
Q 2881 4653 3097 4563 
z
M 1972 2591 
Q 1569 2591 1337 2300 
Q 1106 2009 1106 1497 
Q 1106 984 1337 693 
Q 1569 403 1972 403 
Q 2391 403 2603 679 
Q 2816 956 2816 1497 
Q 2816 2041 2603 2316 
Q 2391 2591 1972 2591 
z
" transform="scale(0.015625)"/>
      <path id="DejaVuSansMono-2e" d="M 1528 953 
L 2316 953 
L 2316 0 
L 1528 0 
L 1528 953 
z
" transform="scale(0.015625)"/>
      <path id="DejaVuSansMono-33" d="M 2425 2497 
Q 2884 2375 3128 2064 
Q 3372 1753 3372 1288 
Q 3372 644 2939 276 
Q 2506 -91 1741 -91 
Q 1419 -91 1084 -31 
Q 750 28 428 141 
L 428 769 
Q 747 603 1056 522 
Q 1366 441 1672 441 
Q 2191 441 2469 675 
Q 2747 909 2747 1350 
Q 2747 1756 2469 1995 
Q 2191 2234 1716 2234 
L 1234 2234 
L 1234 2753 
L 1716 2753 
Q 2150 2753 2394 2943 
Q 2638 3134 2638 3475 
Q 2638 3834 2411 4026 
Q 2184 4219 1766 4219 
Q 1488 4219 1191 4156 
Q 894 4094 569 3969 
L 569 4550 
Q 947 4650 1242 4700 
Q 1538 4750 1766 4750 
Q 2447 4750 2855 4408 
Q 3263 4066 3263 3500 
Q 3263 3116 3048 2859 
Q 2834 2603 2425 2497 
z
" transform="scale(0.015625)"/>
      <path id="DejaVuSansMono-25" d="M 2175 997 
Q 2175 753 2339 587 
Q 2503 422 2747 422 
Q 2988 422 3155 589 
Q 3322 756 3322 997 
Q 3322 1238 3153 1406 
Q 2984 1575 2747 1575 
Q 2503 1575 2339 1409 
Q 2175 1244 2175 997 
z
M 1753 997 
Q 1753 1419 2040 1708 
Q 2328 1997 2747 1997 
Q 2947 1997 3126 1922 
Q 3306 1847 3450 1703 
Q 3594 1556 3672 1375 
Q 3750 1194 3750 997 
Q 3750 581 3459 290 
Q 3169 0 2747 0 
Q 2322 0 2037 286 
Q 1753 572 1753 997 
z
M 378 1453 
L 269 1753 
L 3525 3059 
L 3653 2759 
L 378 1453 
z
M 525 3475 
Q 525 3228 689 3064 
Q 853 2900 1100 2900 
Q 1341 2900 1509 3067 
Q 1678 3234 1678 3475 
Q 1678 3716 1509 3883 
Q 1341 4050 1100 4050 
Q 859 4050 692 3884 
Q 525 3719 525 3475 
z
M 103 3475 
Q 103 3897 390 4186 
Q 678 4475 1100 4475 
Q 1300 4475 1483 4400 
Q 1666 4325 1806 4184 
Q 1947 4044 2023 3861 
Q 2100 3678 2100 3475 
Q 2100 3056 1809 2767 
Q 1519 2478 1100 2478 
Q 678 2478 390 2765 
Q 103 3053 103 3475 
z
" transform="scale(0.015625)"/>
     </defs>
     <use xlink:href="#DejaVuSansMono-34"/>
     <use xlink:href="#DejaVuSansMono-36" transform="translate(60.205078 0)"/>
     <use xlink:href="#DejaVuSansMono-2e" transform="translate(120.410156 0)"/>
     <use xlink:href="#DejaVuSansMono-33" transform="translate(180.615234 0)"/>
     <use xlink:href="#DejaVuSansMono-25" transform="translate(240.820312 0)"/>
    </g>
   </g>
   <g id="text_15">
    <!-- 3.8% -->
    <g transform="translate(391.390687 317.668128) scale(0.08 -0.08)">
     <use xlink:href="#DejaVuSansMono-33"/>
     <use xlink:href="#DejaVuSansMono-2e" transform="translate(60.205078 0)"/>
     <use xlink:href="#DejaVuSansMono-38" transform="translate(120.410156 0)"/>
     <use xlink:href="#DejaVuSansMono-25" transform="translate(180.615234 0)"/>
    </g>
   </g>
   <g id="text_16">
    <!-- 15.7% -->
    <g transform="translate(170.010745 295.790572) scale(0.08 -0.08)">
     <defs>
      <path id="DejaVuSansMono-31" d="M 844 531 
L 1825 531 
L 1825 4097 
L 769 3859 
L 769 4434 
L 1819 4666 
L 2450 4666 
L 2450 531 
L 3419 531 
L 3419 0 
L 844 0 
L 844 531 
z
" transform="scale(0.015625)"/>
      <path id="DejaVuSansMono-35" d="M 647 4666 
L 3009 4666 
L 3009 4134 
L 1222 4134 
L 1222 2988 
Q 1356 3038 1492 3061 
Q 1628 3084 1766 3084 
Q 2491 3084 2916 2656 
Q 3341 2228 3341 1497 
Q 3341 759 2895 334 
Q 2450 -91 1678 -91 
Q 1306 -91 998 -41 
Q 691 9 447 109 
L 447 750 
Q 734 594 1025 517 
Q 1316 441 1619 441 
Q 2141 441 2423 716 
Q 2706 991 2706 1497 
Q 2706 1997 2414 2275 
Q 2122 2553 1600 2553 
Q 1347 2553 1106 2495 
Q 866 2438 647 2322 
L 647 4666 
z
" transform="scale(0.015625)"/>
      <path id="DejaVuSansMono-37" d="M 434 4666 
L 3372 4666 
L 3372 4397 
L 1703 0 
L 1044 0 
L 2669 4134 
L 434 4134 
L 434 4666 
z
" transform="scale(0.015625)"/>
     </defs>
     <use xlink:href="#DejaVuSansMono-31"/>
     <use xlink:href="#DejaVuSansMono-35" transform="translate(60.205078 0)"/>
     <use xlink:href="#DejaVuSansMono-2e" transform="translate(120.410156 0)"/>
     <use xlink:href="#DejaVuSansMono-37" transform="translate(180.615234 0)"/>
     <use xlink:href="#DejaVuSansMono-25" transform="translate(240.820312 0)"/>
    </g>
   </g>
   <g id="text_17">
    <!-- 100.0% -->
    <g transform="translate(459.565042 140.809237) scale(0.08 -0.08)">
     <defs>
      <path id="DejaVuSansMono-30" d="M 1509 2344 
Q 1509 2516 1629 2641 
Q 1750 2766 1919 2766 
Q 2094 2766 2219 2641 
Q 2344 2516 2344 2344 
Q 2344 2169 2220 2047 
Q 2097 1925 1919 1925 
Q 1744 1925 1626 2044 
Q 1509 2163 1509 2344 
z
M 1925 4250 
Q 1484 4250 1267 3775 
Q 1050 3300 1050 2328 
Q 1050 1359 1267 884 
Q 1484 409 1925 409 
Q 2369 409 2586 884 
Q 2803 1359 2803 2328 
Q 2803 3300 2586 3775 
Q 2369 4250 1925 4250 
z
M 1925 4750 
Q 2672 4750 3055 4137 
Q 3438 3525 3438 2328 
Q 3438 1134 3055 521 
Q 2672 -91 1925 -91 
Q 1178 -91 797 521 
Q 416 1134 416 2328 
Q 416 3525 797 4137 
Q 1178 4750 1925 4750 
z
" transform="scale(0.015625)"/>
     </defs>
     <use xlink:href="#DejaVuSansMono-31"/>
     <use xlink:href="#DejaVuSansMono-30" transform="translate(60.205078 0)"/>
     <use xlink:href="#DejaVuSansMono-30" transform="translate(120.410156 0)"/>
     <use xlink:href="#DejaVuSansMono-2e" transform="translate(180.615234 0)"/>
     <use xlink:href="#DejaVuSansMono-30" transform="translate(240.820312 0)"/>
     <use xlink:href="#DejaVuSansMono-25" transform="translate(301.025391 0)"/>
    </g>
   </g>
   <g id="text_18">
    <!-- 7.2% -->
    <g transform="translate(245.409476 311.417397) scale(0.08 -0.08)">
     <defs>
      <path id="DejaVuSansMono-32" d="M 1166 531 
L 3309 531 
L 3309 0 
L 475 0 
L 475 531 
Q 1059 1147 1496 1619 
Q 1934 2091 2100 2284 
Q 2413 2666 2522 2902 
Q 2631 3138 2631 3384 
Q 2631 3775 2401 3997 
Q 2172 4219 1772 4219 
Q 1488 4219 1175 4116 
Q 863 4013 513 3803 
L 513 4441 
Q 834 4594 1145 4672 
Q 1456 4750 1759 4750 
Q 2444 4750 2861 4386 
Q 3278 4022 3278 3431 
Q 3278 3131 3139 2831 
Q 3000 2531 2688 2169 
Q 2513 1966 2180 1606 
Q 1847 1247 1166 531 
z
" transform="scale(0.015625)"/>
     </defs>
     <use xlink:href="#DejaVuSansMono-37"/>
     <use xlink:href="#DejaVuSansMono-2e" transform="translate(60.205078 0)"/>
     <use xlink:href="#DejaVuSansMono-32" transform="translate(120.410156 0)"/>
     <use xlink:href="#DejaVuSansMono-25" transform="translate(180.615234 0)"/>
    </g>
   </g>
   <g id="text_19">
    <!-- 7.7% -->
    <g transform="translate(537.371898 310.498173) scale(0.08 -0.08)">
     <use xlink:href="#DejaVuSansMono-37"/>
     <use xlink:href="#DejaVuSansMono-2e" transform="translate(60.205078 0)"/>
     <use xlink:href="#DejaVuSansMono-37" transform="translate(120.410156 0)"/>
     <use xlink:href="#DejaVuSansMono-25" transform="translate(180.615234 0)"/>
    </g>
   </g>
   <g id="text_20">
    <g id="patch_14">
     <path d="M 52.639027 77.100227 
L 365.695277 77.100227 
Q 368.095277 77.100227 368.095277 74.700227 
L 368.095277 39.887477 
Q 368.095277 37.487477 365.695277 37.487477 
L 52.639027 37.487477 
Q 50.239027 37.487477 50.239027 39.887477 
L 50.239027 74.700227 
Q 50.239027 77.100227 52.639027 77.100227 
z
" style="fill: #ffffff; opacity: 0.7; stroke: #cccccc; stroke-linejoin: miter"/>
    </g>
    <!-- Combined = (% allocated) × (% utilized) / 100 -->
    <g transform="translate(52.639027 46.008727) scale(0.08 -0.08)">
     <defs>
      <path id="DejaVuSansMono-43" d="M 3353 166 
Q 3113 38 2859 -26 
Q 2606 -91 2322 -91 
Q 1425 -91 929 543 
Q 434 1178 434 2328 
Q 434 3472 932 4111 
Q 1431 4750 2322 4750 
Q 2606 4750 2859 4686 
Q 3113 4622 3353 4494 
L 3353 3847 
Q 3122 4038 2856 4138 
Q 2591 4238 2322 4238 
Q 1706 4238 1400 3763 
Q 1094 3288 1094 2328 
Q 1094 1372 1400 897 
Q 1706 422 2322 422 
Q 2597 422 2861 522 
Q 3125 622 3353 813 
L 3353 166 
z
" transform="scale(0.015625)"/>
      <path id="DejaVuSansMono-6f" d="M 1925 3097 
Q 1488 3097 1263 2756 
Q 1038 2416 1038 1747 
Q 1038 1081 1263 739 
Q 1488 397 1925 397 
Q 2366 397 2591 739 
Q 2816 1081 2816 1747 
Q 2816 2416 2591 2756 
Q 2366 3097 1925 3097 
z
M 1925 3584 
Q 2653 3584 3039 3112 
Q 3425 2641 3425 1747 
Q 3425 850 3040 379 
Q 2656 -91 1925 -91 
Q 1197 -91 812 379 
Q 428 850 428 1747 
Q 428 2641 812 3112 
Q 1197 3584 1925 3584 
z
" transform="scale(0.015625)"/>
      <path id="DejaVuSansMono-6d" d="M 2113 3144 
Q 2219 3369 2383 3476 
Q 2547 3584 2778 3584 
Q 3200 3584 3373 3257 
Q 3547 2931 3547 2028 
L 3547 0 
L 3022 0 
L 3022 2003 
Q 3022 2744 2939 2923 
Q 2856 3103 2638 3103 
Q 2388 3103 2295 2911 
Q 2203 2719 2203 2003 
L 2203 0 
L 1678 0 
L 1678 2003 
Q 1678 2753 1589 2928 
Q 1500 3103 1269 3103 
Q 1041 3103 952 2911 
Q 863 2719 863 2003 
L 863 0 
L 341 0 
L 341 3500 
L 863 3500 
L 863 3200 
Q 966 3388 1120 3486 
Q 1275 3584 1472 3584 
Q 1709 3584 1867 3475 
Q 2025 3366 2113 3144 
z
" transform="scale(0.015625)"/>
      <path id="DejaVuSansMono-62" d="M 2869 1747 
Q 2869 2416 2656 2756 
Q 2444 3097 2028 3097 
Q 1609 3097 1393 2755 
Q 1178 2413 1178 1747 
Q 1178 1084 1393 740 
Q 1609 397 2028 397 
Q 2444 397 2656 737 
Q 2869 1078 2869 1747 
z
M 1178 3053 
Q 1316 3309 1558 3446 
Q 1800 3584 2119 3584 
Q 2750 3584 3112 3098 
Q 3475 2613 3475 1759 
Q 3475 894 3111 401 
Q 2747 -91 2113 -91 
Q 1800 -91 1561 45 
Q 1322 181 1178 441 
L 1178 0 
L 603 0 
L 603 4863 
L 1178 4863 
L 1178 3053 
z
" transform="scale(0.015625)"/>
      <path id="DejaVuSansMono-69" d="M 800 3500 
L 2272 3500 
L 2272 447 
L 3413 447 
L 3413 0 
L 556 0 
L 556 447 
L 1697 447 
L 1697 3053 
L 800 3053 
L 800 3500 
z
M 1697 4863 
L 2272 4863 
L 2272 4134 
L 1697 4134 
L 1697 4863 
z
" transform="scale(0.015625)"/>
      <path id="DejaVuSansMono-64" d="M 2681 3053 
L 2681 4863 
L 3256 4863 
L 3256 0 
L 2681 0 
L 2681 441 
Q 2538 181 2298 45 
Q 2059 -91 1747 -91 
Q 1113 -91 748 401 
Q 384 894 384 1759 
Q 384 2613 750 3098 
Q 1116 3584 1747 3584 
Q 2063 3584 2303 3448 
Q 2544 3313 2681 3053 
z
M 991 1747 
Q 991 1078 1203 737 
Q 1416 397 1831 397 
Q 2247 397 2464 740 
Q 2681 1084 2681 1747 
Q 2681 2413 2464 2755 
Q 2247 3097 1831 3097 
Q 1416 3097 1203 2756 
Q 991 2416 991 1747 
z
" transform="scale(0.015625)"/>
      <path id="DejaVuSansMono-3d" d="M 275 1638 
L 3578 1638 
L 3578 1100 
L 275 1100 
L 275 1638 
z
M 275 2906 
L 3578 2906 
L 3578 2375 
L 275 2375 
L 275 2906 
z
" transform="scale(0.015625)"/>
      <path id="DejaVuSansMono-28" d="M 2766 4856 
Q 2350 4144 2145 3436 
Q 1941 2728 1941 2009 
Q 1941 1294 2145 584 
Q 2350 -125 2766 -844 
L 2266 -844 
Q 1794 -100 1562 604 
Q 1331 1309 1331 2009 
Q 1331 2706 1562 3412 
Q 1794 4119 2266 4856 
L 2766 4856 
z
" transform="scale(0.015625)"/>
      <path id="DejaVuSansMono-6c" d="M 1997 1269 
Q 1997 881 2139 684 
Q 2281 488 2559 488 
L 3231 488 
L 3231 0 
L 2503 0 
Q 1988 0 1705 331 
Q 1422 663 1422 1269 
L 1422 4447 
L 500 4447 
L 500 4897 
L 1997 4897 
L 1997 1269 
z
" transform="scale(0.015625)"/>
      <path id="DejaVuSansMono-29" d="M 1088 4856 
L 1588 4856 
Q 2059 4119 2290 3412 
Q 2522 2706 2522 2009 
Q 2522 1306 2290 600 
Q 2059 -106 1588 -844 
L 1088 -844 
Q 1503 -119 1708 590 
Q 1913 1300 1913 2009 
Q 1913 2722 1708 3431 
Q 1503 4141 1088 4856 
z
" transform="scale(0.015625)"/>
      <path id="DejaVuSansMono-d7" d="M 469 916 
L 1563 2003 
L 469 3097 
L 831 3463 
L 1925 2369 
L 3022 3463 
L 3384 3097 
L 2291 2003 
L 3378 916 
L 3016 544 
L 1925 1638 
L 838 544 
L 469 916 
z
" transform="scale(0.015625)"/>
      <path id="DejaVuSansMono-75" d="M 609 1325 
L 609 3494 
L 1184 3494 
L 1184 1325 
Q 1184 853 1351 631 
Q 1519 409 1869 409 
Q 2275 409 2490 695 
Q 2706 981 2706 1516 
L 2706 3494 
L 3284 3494 
L 3284 0 
L 2706 0 
L 2706 525 
Q 2553 222 2289 65 
Q 2025 -91 1672 -91 
Q 1134 -91 871 261 
Q 609 613 609 1325 
z
" transform="scale(0.015625)"/>
      <path id="DejaVuSansMono-7a" d="M 709 3506 
L 3250 3506 
L 3250 2981 
L 1241 469 
L 3250 469 
L 3250 0 
L 634 0 
L 634 531 
L 2644 3047 
L 709 3047 
L 709 3506 
z
" transform="scale(0.015625)"/>
     </defs>
     <use xlink:href="#DejaVuSansMono-43"/>
     <use xlink:href="#DejaVuSansMono-6f" transform="translate(60.205078 0)"/>
     <use xlink:href="#DejaVuSansMono-6d" transform="translate(120.410156 0)"/>
     <use xlink:href="#DejaVuSansMono-62" transform="translate(180.615234 0)"/>
     <use xlink:href="#DejaVuSansMono-69" transform="translate(240.820312 0)"/>
     <use xlink:href="#DejaVuSansMono-6e" transform="translate(301.025391 0)"/>
     <use xlink:href="#DejaVuSansMono-65" transform="translate(361.230469 0)"/>
     <use xlink:href="#DejaVuSansMono-64" transform="translate(421.435547 0)"/>
     <use xlink:href="#DejaVuSansMono-20" transform="translate(481.640625 0)"/>
     <use xlink:href="#DejaVuSansMono-3d" transform="translate(541.845703 0)"/>
     <use xlink:href="#DejaVuSansMono-20" transform="translate(602.050781 0)"/>
     <use xlink:href="#DejaVuSansMono-28" transform="translate(662.255859 0)"/>
     <use xlink:href="#DejaVuSansMono-25" transform="translate(722.460938 0)"/>
     <use xlink:href="#DejaVuSansMono-20" transform="translate(782.666016 0)"/>
     <use xlink:href="#DejaVuSansMono-61" transform="translate(842.871094 0)"/>
     <use xlink:href="#DejaVuSansMono-6c" transform="translate(903.076172 0)"/>
     <use xlink:href="#DejaVuSansMono-6c" transform="translate(963.28125 0)"/>
     <use xlink:href="#DejaVuSansMono-6f" transform="translate(1023.486328 0)"/>
     <use xlink:href="#DejaVuSansMono-63" transform="translate(1083.691406 0)"/>
     <use xlink:href="#DejaVuSansMono-61" transform="translate(1143.896484 0)"/>
     <use xlink:href="#DejaVuSansMono-74" transform="translate(1204.101562 0)"/>
     <use xlink:href="#DejaVuSansMono-65" transform="translate(1264.306641 0)"/>
     <use xlink:href="#DejaVuSansMono-64" transform="translate(1324.511719 0)"/>
     <use xlink:href="#DejaVuSansMono-29" transform="translate(1384.716797 0)"/>
     <use xlink:href="#DejaVuSansMono-20" transform="translate(1444.921875 0)"/>
     <use xlink:href="#DejaVuSansMono-d7" transform="translate(1505.126953 0)"/>
     <use xlink:href="#DejaVuSansMono-20" transform="translate(1565.332031 0)"/>
     <use xlink:href="#DejaVuSansMono-28" transform="translate(1625.537109 0)"/>
     <use xlink:href="#DejaVuSansMono-25" transform="translate(1685.742188 0)"/>
     <use xlink:href="#DejaVuSansMono-20" transform="translate(1745.947266 0)"/>
     <use xlink:href="#DejaVuSansMono-75" transform="translate(1806.152344 0)"/>
     <use xlink:href="#DejaVuSansMono-74" transform="translate(1866.357422 0)"/>
     <use xlink:href="#DejaVuSansMono-69" transform="translate(1926.5625 0)"/>
     <use xlink:href="#DejaVuSansMono-6c" transform="translate(1986.767578 0)"/>
     <use xlink:href="#DejaVuSansMono-69" transform="translate(2046.972656 0)"/>
     <use xlink:href="#DejaVuSansMono-7a" transform="translate(2107.177734 0)"/>
     <use xlink:href="#DejaVuSansMono-65" transform="translate(2167.382812 0)"/>
     <use xlink:href="#DejaVuSansMono-64" transform="translate(2227.587891 0)"/>
     <use xlink:href="#DejaVuSansMono-29" transform="translate(2287.792969 0)"/>
     <use xlink:href="#DejaVuSansMono-20" transform="translate(2347.998047 0)"/>
     <use xlink:href="#DejaVuSansMono-2f" transform="translate(2408.203125 0)"/>
     <use xlink:href="#DejaVuSansMono-20" transform="translate(2468.408203 0)"/>
     <use xlink:href="#DejaVuSansMono-31" transform="translate(2528.613281 0)"/>
     <use xlink:href="#DejaVuSansMono-30" transform="translate(2588.818359 0)"/>
     <use xlink:href="#DejaVuSansMono-30" transform="translate(2649.023438 0)"/>
    </g>
    <!-- i.e. what fraction of physical RAM is actively used at any moment -->
    <g transform="translate(52.639027 55.017977) scale(0.08 -0.08)">
     <defs>
      <path id="DejaVuSansMono-77" d="M 0 3500 
L 569 3500 
L 1178 672 
L 1678 2478 
L 2169 2478 
L 2675 672 
L 3284 3500 
L 3853 3500 
L 3034 0 
L 2484 0 
L 1925 1919 
L 1369 0 
L 819 0 
L 0 3500 
z
" transform="scale(0.015625)"/>
      <path id="DejaVuSansMono-66" d="M 3322 4863 
L 3322 4384 
L 2669 4384 
Q 2359 4384 2239 4257 
Q 2119 4131 2119 3809 
L 2119 3500 
L 3322 3500 
L 3322 3053 
L 2119 3053 
L 2119 0 
L 1544 0 
L 1544 3053 
L 609 3053 
L 609 3500 
L 1544 3500 
L 1544 3744 
Q 1544 4319 1808 4591 
Q 2072 4863 2631 4863 
L 3322 4863 
z
" transform="scale(0.015625)"/>
      <path id="DejaVuSansMono-79" d="M 2681 1125 
Q 2538 759 2316 163 
Q 2006 -663 1900 -844 
Q 1756 -1088 1540 -1209 
Q 1325 -1331 1038 -1331 
L 575 -1331 
L 575 -850 
L 916 -850 
Q 1169 -850 1312 -703 
Q 1456 -556 1678 56 
L 325 3500 
L 934 3500 
L 1972 763 
L 2994 3500 
L 3603 3500 
L 2681 1125 
z
" transform="scale(0.015625)"/>
      <path id="DejaVuSansMono-73" d="M 3041 3378 
L 3041 2816 
Q 2794 2959 2544 3031 
Q 2294 3103 2034 3103 
Q 1644 3103 1451 2976 
Q 1259 2850 1259 2591 
Q 1259 2356 1403 2240 
Q 1547 2125 2119 2016 
L 2350 1972 
Q 2778 1891 2998 1647 
Q 3219 1403 3219 1013 
Q 3219 494 2850 201 
Q 2481 -91 1825 -91 
Q 1566 -91 1281 -36 
Q 997 19 666 128 
L 666 722 
Q 988 556 1281 473 
Q 1575 391 1838 391 
Q 2219 391 2428 545 
Q 2638 700 2638 978 
Q 2638 1378 1872 1531 
L 1847 1538 
L 1631 1581 
Q 1134 1678 906 1908 
Q 678 2138 678 2534 
Q 678 3038 1018 3311 
Q 1359 3584 1991 3584 
Q 2272 3584 2531 3532 
Q 2791 3481 3041 3378 
z
" transform="scale(0.015625)"/>
      <path id="DejaVuSansMono-52" d="M 2375 2203 
Q 2619 2141 2791 1967 
Q 2963 1794 3219 1275 
L 3853 0 
L 3175 0 
L 2619 1178 
Q 2378 1681 2186 1826 
Q 1994 1972 1684 1972 
L 1081 1972 
L 1081 0 
L 447 0 
L 447 4666 
L 1747 4666 
Q 2516 4666 2925 4319 
Q 3334 3972 3334 3316 
Q 3334 2853 3082 2561 
Q 2831 2269 2375 2203 
z
M 1081 4147 
L 1081 2491 
L 1772 2491 
Q 2225 2491 2447 2694 
Q 2669 2897 2669 3316 
Q 2669 3719 2433 3933 
Q 2197 4147 1747 4147 
L 1081 4147 
z
" transform="scale(0.015625)"/>
      <path id="DejaVuSansMono-4d" d="M 269 4666 
L 1113 4666 
L 1919 2291 
L 2731 4666 
L 3578 4666 
L 3578 0 
L 2994 0 
L 2994 4122 
L 2163 1663 
L 1684 1663 
L 850 4122 
L 850 0 
L 269 0 
L 269 4666 
z
" transform="scale(0.015625)"/>
      <path id="DejaVuSansMono-76" d="M 313 3500 
L 909 3500 
L 1925 563 
L 2944 3500 
L 3541 3500 
L 2297 0 
L 1556 0 
L 313 3500 
z
" transform="scale(0.015625)"/>
     </defs>
     <use xlink:href="#DejaVuSansMono-69"/>
     <use xlink:href="#DejaVuSansMono-2e" transform="translate(60.205078 0)"/>
     <use xlink:href="#DejaVuSansMono-65" transform="translate(120.410156 0)"/>
     <use xlink:href="#DejaVuSansMono-2e" transform="translate(180.615234 0)"/>
     <use xlink:href="#DejaVuSansMono-20" transform="translate(240.820312 0)"/>
     <use xlink:href="#DejaVuSansMono-77" transform="translate(301.025391 0)"/>
     <use xlink:href="#DejaVuSansMono-68" transform="translate(361.230469 0)"/>
     <use xlink:href="#DejaVuSansMono-61" transform="translate(421.435547 0)"/>
     <use xlink:href="#DejaVuSansMono-74" transform="translate(481.640625 0)"/>
     <use xlink:href="#DejaVuSansMono-20" transform="translate(541.845703 0)"/>
     <use xlink:href="#DejaVuSansMono-66" transform="translate(602.050781 0)"/>
     <use xlink:href="#DejaVuSansMono-72" transform="translate(662.255859 0)"/>
     <use xlink:href="#DejaVuSansMono-61" transform="translate(722.460938 0)"/>
     <use xlink:href="#DejaVuSansMono-63" transform="translate(782.666016 0)"/>
     <use xlink:href="#DejaVuSansMono-74" transform="translate(842.871094 0)"/>
     <use xlink:href="#DejaVuSansMono-69" transform="translate(903.076172 0)"/>
     <use xlink:href="#DejaVuSansMono-6f" transform="translate(963.28125 0)"/>
     <use xlink:href="#DejaVuSansMono-6e" transform="translate(1023.486328 0)"/>
     <use xlink:href="#DejaVuSansMono-20" transform="translate(1083.691406 0)"/>
     <use xlink:href="#DejaVuSansMono-6f" transform="translate(1143.896484 0)"/>
     <use xlink:href="#DejaVuSansMono-66" transform="translate(1204.101562 0)"/>
     <use xlink:href="#DejaVuSansMono-20" transform="translate(1264.306641 0)"/>
     <use xlink:href="#DejaVuSansMono-70" transform="translate(1324.511719 0)"/>
     <use xlink:href="#DejaVuSansMono-68" transform="translate(1384.716797 0)"/>
     <use xlink:href="#DejaVuSansMono-79" transform="translate(1444.921875 0)"/>
     <use xlink:href="#DejaVuSansMono-73" transform="translate(1505.126953 0)"/>
     <use xlink:href="#DejaVuSansMono-69" transform="translate(1565.332031 0)"/>
     <use xlink:href="#DejaVuSansMono-63" transform="translate(1625.537109 0)"/>
     <use xlink:href="#DejaVuSansMono-61" transform="translate(1685.742188 0)"/>
     <use xlink:href="#DejaVuSansMono-6c" transform="translate(1745.947266 0)"/>
     <use xlink:href="#DejaVuSansMono-20" transform="translate(1806.152344 0)"/>
     <use xlink:href="#DejaVuSansMono-52" transform="translate(1866.357422 0)"/>
     <use xlink:href="#DejaVuSansMono-41" transform="translate(1926.5625 0)"/>
     <use xlink:href="#DejaVuSansMono-4d" transform="translate(1986.767578 0)"/>
     <use xlink:href="#DejaVuSansMono-20" transform="translate(2046.972656 0)"/>
     <use xlink:href="#DejaVuSansMono-69" transform="translate(2107.177734 0)"/>
     <use xlink:href="#DejaVuSansMono-73" transform="translate(2167.382812 0)"/>
     <use xlink:href="#DejaVuSansMono-20" transform="translate(2227.587891 0)"/>
     <use xlink:href="#DejaVuSansMono-61" transform="translate(2287.792969 0)"/>
     <use xlink:href="#DejaVuSansMono-63" transform="translate(2347.998047 0)"/>
     <use xlink:href="#DejaVuSansMono-74" transform="translate(2408.203125 0)"/>
     <use xlink:href="#DejaVuSansMono-69" transform="translate(2468.408203 0)"/>
     <use xlink:href="#DejaVuSansMono-76" transform="translate(2528.613281 0)"/>
     <use xlink:href="#DejaVuSansMono-65" transform="translate(2588.818359 0)"/>
     <use xlink:href="#DejaVuSansMono-6c" transform="translate(2649.023438 0)"/>
     <use xlink:href="#DejaVuSansMono-79" transform="translate(2709.228516 0)"/>
     <use xlink:href="#DejaVuSansMono-20" transform="translate(2769.433594 0)"/>
     <use xlink:href="#DejaVuSansMono-75" transform="translate(2829.638672 0)"/>
     <use xlink:href="#DejaVuSansMono-73" transform="translate(2889.84375 0)"/>
     <use xlink:href="#DejaVuSansMono-65" transform="translate(2950.048828 0)"/>
     <use xlink:href="#DejaVuSansMono-64" transform="translate(3010.253906 0)"/>
     <use xlink:href="#DejaVuSansMono-20" transform="translate(3070.458984 0)"/>
     <use xlink:href="#DejaVuSansMono-61" transform="translate(3130.664062 0)"/>
     <use xlink:href="#DejaVuSansMono-74" transform="translate(3190.869141 0)"/>
     <use xlink:href="#DejaVuSansMono-20" transform="translate(3251.074219 0)"/>
     <use xlink:href="#DejaVuSansMono-61" transform="translate(3311.279297 0)"/>
     <use xlink:href="#DejaVuSansMono-6e" transform="translate(3371.484375 0)"/>
     <use xlink:href="#DejaVuSansMono-79" transform="translate(3431.689453 0)"/>
     <use xlink:href="#DejaVuSansMono-20" transform="translate(3491.894531 0)"/>
     <use xlink:href="#DejaVuSansMono-6d" transform="translate(3552.099609 0)"/>
     <use xlink:href="#DejaVuSansMono-6f" transform="translate(3612.304688 0)"/>
     <use xlink:href="#DejaVuSansMono-6d" transform="translate(3672.509766 0)"/>
     <use xlink:href="#DejaVuSansMono-65" transform="translate(3732.714844 0)"/>
     <use xlink:href="#DejaVuSansMono-6e" transform="translate(3792.919922 0)"/>
     <use xlink:href="#DejaVuSansMono-74" transform="translate(3853.125 0)"/>
    </g>
    <!-- Batch: 46.3% × 15.7% / 100 = 7.3% -->
    <g transform="translate(52.639027 64.027227) scale(0.08 -0.08)">
     <defs>
      <path id="DejaVuSansMono-3a" d="M 1528 3322 
L 2316 3322 
L 2316 2375 
L 1528 2375 
L 1528 3322 
z
M 1528 953 
L 2316 953 
L 2316 0 
L 1528 0 
L 1528 953 
z
" transform="scale(0.015625)"/>
     </defs>
     <use xlink:href="#DejaVuSansMono-42"/>
     <use xlink:href="#DejaVuSansMono-61" transform="translate(60.205078 0)"/>
     <use xlink:href="#DejaVuSansMono-74" transform="translate(120.410156 0)"/>
     <use xlink:href="#DejaVuSansMono-63" transform="translate(180.615234 0)"/>
     <use xlink:href="#DejaVuSansMono-68" transform="translate(240.820312 0)"/>
     <use xlink:href="#DejaVuSansMono-3a" transform="translate(301.025391 0)"/>
     <use xlink:href="#DejaVuSansMono-20" transform="translate(361.230469 0)"/>
     <use xlink:href="#DejaVuSansMono-34" transform="translate(421.435547 0)"/>
     <use xlink:href="#DejaVuSansMono-36" transform="translate(481.640625 0)"/>
     <use xlink:href="#DejaVuSansMono-2e" transform="translate(541.845703 0)"/>
     <use xlink:href="#DejaVuSansMono-33" transform="translate(602.050781 0)"/>
     <use xlink:href="#DejaVuSansMono-25" transform="translate(662.255859 0)"/>
     <use xlink:href="#DejaVuSansMono-20" transform="translate(722.460938 0)"/>
     <use xlink:href="#DejaVuSansMono-d7" transform="translate(782.666016 0)"/>
     <use xlink:href="#DejaVuSansMono-20" transform="translate(842.871094 0)"/>
     <use xlink:href="#DejaVuSansMono-31" transform="translate(903.076172 0)"/>
     <use xlink:href="#DejaVuSansMono-35" transform="translate(963.28125 0)"/>
     <use xlink:href="#DejaVuSansMono-2e" transform="translate(1023.486328 0)"/>
     <use xlink:href="#DejaVuSansMono-37" transform="translate(1083.691406 0)"/>
     <use xlink:href="#DejaVuSansMono-25" transform="translate(1143.896484 0)"/>
     <use xlink:href="#DejaVuSansMono-20" transform="translate(1204.101562 0)"/>
     <use xlink:href="#DejaVuSansMono-2f" transform="translate(1264.306641 0)"/>
     <use xlink:href="#DejaVuSansMono-20" transform="translate(1324.511719 0)"/>
     <use xlink:href="#DejaVuSansMono-31" transform="translate(1384.716797 0)"/>
     <use xlink:href="#DejaVuSansMono-30" transform="translate(1444.921875 0)"/>
     <use xlink:href="#DejaVuSansMono-30" transform="translate(1505.126953 0)"/>
     <use xlink:href="#DejaVuSansMono-20" transform="translate(1565.332031 0)"/>
     <use xlink:href="#DejaVuSansMono-3d" transform="translate(1625.537109 0)"/>
     <use xlink:href="#DejaVuSansMono-20" transform="translate(1685.742188 0)"/>
     <use xlink:href="#DejaVuSansMono-37" transform="translate(1745.947266 0)"/>
     <use xlink:href="#DejaVuSansMono-2e" transform="translate(1806.152344 0)"/>
     <use xlink:href="#DejaVuSansMono-33" transform="translate(1866.357422 0)"/>
     <use xlink:href="#DejaVuSansMono-25" transform="translate(1926.5625 0)"/>
    </g>
    <!-- K8S+:   3.8% × 201% / 100 = 7.7% -->
    <g transform="translate(52.639027 73.036477) scale(0.08 -0.08)">
     <use xlink:href="#DejaVuSansMono-4b"/>
     <use xlink:href="#DejaVuSansMono-38" transform="translate(60.205078 0)"/>
     <use xlink:href="#DejaVuSansMono-53" transform="translate(120.410156 0)"/>
     <use xlink:href="#DejaVuSansMono-2b" transform="translate(180.615234 0)"/>
     <use xlink:href="#DejaVuSansMono-3a" transform="translate(240.820312 0)"/>
     <use xlink:href="#DejaVuSansMono-20" transform="translate(301.025391 0)"/>
     <use xlink:href="#DejaVuSansMono-20" transform="translate(361.230469 0)"/>
     <use xlink:href="#DejaVuSansMono-20" transform="translate(421.435547 0)"/>
     <use xlink:href="#DejaVuSansMono-33" transform="translate(481.640625 0)"/>
     <use xlink:href="#DejaVuSansMono-2e" transform="translate(541.845703 0)"/>
     <use xlink:href="#DejaVuSansMono-38" transform="translate(602.050781 0)"/>
     <use xlink:href="#DejaVuSansMono-25" transform="translate(662.255859 0)"/>
     <use xlink:href="#DejaVuSansMono-20" transform="translate(722.460938 0)"/>
     <use xlink:href="#DejaVuSansMono-d7" transform="translate(782.666016 0)"/>
     <use xlink:href="#DejaVuSansMono-20" transform="translate(842.871094 0)"/>
     <use xlink:href="#DejaVuSansMono-32" transform="translate(903.076172 0)"/>
     <use xlink:href="#DejaVuSansMono-30" transform="translate(963.28125 0)"/>
     <use xlink:href="#DejaVuSansMono-31" transform="translate(1023.486328 0)"/>
     <use xlink:href="#DejaVuSansMono-25" transform="translate(1083.691406 0)"/>
     <use xlink:href="#DejaVuSansMono-20" transform="translate(1143.896484 0)"/>
     <use xlink:href="#DejaVuSansMono-2f" transform="translate(1204.101562 0)"/>
     <use xlink:href="#DejaVuSansMono-20" transform="translate(1264.306641 0)"/>
     <use xlink:href="#DejaVuSansMono-31" transform="translate(1324.511719 0)"/>
     <use xlink:href="#DejaVuSansMono-30" transform="translate(1384.716797 0)"/>
     <use xlink:href="#DejaVuSansMono-30" transform="translate(1444.921875 0)"/>
     <use xlink:href="#DejaVuSansMono-20" transform="translate(1505.126953 0)"/>
     <use xlink:href="#DejaVuSansMono-3d" transform="translate(1565.332031 0)"/>
     <use xlink:href="#DejaVuSansMono-20" transform="translate(1625.537109 0)"/>
     <use xlink:href="#DejaVuSansMono-37" transform="translate(1685.742188 0)"/>
     <use xlink:href="#DejaVuSansMono-2e" transform="translate(1745.947266 0)"/>
     <use xlink:href="#DejaVuSansMono-37" transform="translate(1806.152344 0)"/>
     <use xlink:href="#DejaVuSansMono-25" transform="translate(1866.357422 0)"/>
    </g>
   </g>
   <g id="text_21">
    <!-- RAM Efficiency: Allocation vs Utilization vs Combined -->
    <g transform="translate(152.540472 15.616719) scale(0.11 -0.11)">
     <defs>
      <path id="DejaVuSansMono-45" d="M 616 4666 
L 3384 4666 
L 3384 4134 
L 1247 4134 
L 1247 2753 
L 3291 2753 
L 3291 2222 
L 1247 2222 
L 1247 531 
L 3444 531 
L 3444 0 
L 616 0 
L 616 4666 
z
" transform="scale(0.015625)"/>
      <path id="DejaVuSansMono-55" d="M 459 1791 
L 459 4666 
L 1094 4666 
L 1094 1503 
Q 1094 1163 1112 1017 
Q 1131 872 1178 794 
Q 1278 609 1467 515 
Q 1656 422 1925 422 
Q 2197 422 2384 515 
Q 2572 609 2675 794 
Q 2722 872 2740 1015 
Q 2759 1159 2759 1497 
L 2759 4666 
L 3391 4666 
L 3391 1791 
Q 3391 1075 3302 773 
Q 3213 472 2994 275 
Q 2788 91 2522 0 
Q 2256 -91 1925 -91 
Q 1597 -91 1331 0 
Q 1066 91 856 275 
Q 641 469 550 776 
Q 459 1084 459 1791 
z
" transform="scale(0.015625)"/>
     </defs>
     <use xlink:href="#DejaVuSansMono-52"/>
     <use xlink:href="#DejaVuSansMono-41" transform="translate(60.205078 0)"/>
     <use xlink:href="#DejaVuSansMono-4d" transform="translate(120.410156 0)"/>
     <use xlink:href="#DejaVuSansMono-20" transform="translate(180.615234 0)"/>
     <use xlink:href="#DejaVuSansMono-45" transform="translate(240.820312 0)"/>
     <use xlink:href="#DejaVuSansMono-66" transform="translate(301.025391 0)"/>
     <use xlink:href="#DejaVuSansMono-66" transform="translate(361.230469 0)"/>
     <use xlink:href="#DejaVuSansMono-69" transform="translate(421.435547 0)"/>
     <use xlink:href="#DejaVuSansMono-63" transform="translate(481.640625 0)"/>
     <use xlink:href="#DejaVuSansMono-69" transform="translate(541.845703 0)"/>
     <use xlink:href="#DejaVuSansMono-65" transform="translate(602.050781 0)"/>
     <use xlink:href="#DejaVuSansMono-6e" transform="translate(662.255859 0)"/>
     <use xlink:href="#DejaVuSansMono-63" transform="translate(722.460938 0)"/>
     <use xlink:href="#DejaVuSansMono-79" transform="translate(782.666016 0)"/>
     <use xlink:href="#DejaVuSansMono-3a" transform="translate(842.871094 0)"/>
     <use xlink:href="#DejaVuSansMono-20" transform="translate(903.076172 0)"/>
     <use xlink:href="#DejaVuSansMono-41" transform="translate(963.28125 0)"/>
     <use xlink:href="#DejaVuSansMono-6c" transform="translate(1023.486328 0)"/>
     <use xlink:href="#DejaVuSansMono-6c" transform="translate(1083.691406 0)"/>
     <use xlink:href="#DejaVuSansMono-6f" transform="translate(1143.896484 0)"/>
     <use xlink:href="#DejaVuSansMono-63" transform="translate(1204.101562 0)"/>
     <use xlink:href="#DejaVuSansMono-61" transform="translate(1264.306641 0)"/>
     <use xlink:href="#DejaVuSansMono-74" transform="translate(1324.511719 0)"/>
     <use xlink:href="#DejaVuSansMono-69" transform="translate(1384.716797 0)"/>
     <use xlink:href="#DejaVuSansMono-6f" transform="translate(1444.921875 0)"/>
     <use xlink:href="#DejaVuSansMono-6e" transform="translate(1505.126953 0)"/>
     <use xlink:href="#DejaVuSansMono-20" transform="translate(1565.332031 0)"/>
     <use xlink:href="#DejaVuSansMono-76" transform="translate(1625.537109 0)"/>
     <use xlink:href="#DejaVuSansMono-73" transform="translate(1685.742188 0)"/>
     <use xlink:href="#DejaVuSansMono-20" transform="translate(1745.947266 0)"/>
     <use xlink:href="#DejaVuSansMono-55" transform="translate(1806.152344 0)"/>
     <use xlink:href="#DejaVuSansMono-74" transform="translate(1866.357422 0)"/>
     <use xlink:href="#DejaVuSansMono-69" transform="translate(1926.5625 0)"/>
     <use xlink:href="#DejaVuSansMono-6c" transform="translate(1986.767578 0)"/>
     <use xlink:href="#DejaVuSansMono-69" transform="translate(2046.972656 0)"/>
     <use xlink:href="#DejaVuSansMono-7a" transform="translate(2107.177734 0)"/>
     <use xlink:href="#DejaVuSansMono-61" transform="translate(2167.382812 0)"/>
     <use xlink:href="#DejaVuSansMono-74" transform="translate(2227.587891 0)"/>
     <use xlink:href="#DejaVuSansMono-69" transform="translate(2287.792969 0)"/>
     <use xlink:href="#DejaVuSansMono-6f" transform="translate(2347.998047 0)"/>
     <use xlink:href="#DejaVuSansMono-6e" transform="translate(2408.203125 0)"/>
     <use xlink:href="#DejaVuSansMono-20" transform="translate(2468.408203 0)"/>
     <use xlink:href="#DejaVuSansMono-76" transform="translate(2528.613281 0)"/>
     <use xlink:href="#DejaVuSansMono-73" transform="translate(2588.818359 0)"/>
     <use xlink:href="#DejaVuSansMono-20" transform="translate(2649.023438 0)"/>
     <use xlink:href="#DejaVuSansMono-43" transform="translate(2709.228516 0)"/>
     <use xlink:href="#DejaVuSansMono-6f" transform="translate(2769.433594 0)"/>
     <use xlink:href="#DejaVuSansMono-6d" transform="translate(2829.638672 0)"/>
     <use xlink:href="#DejaVuSansMono-62" transform="translate(2889.84375 0)"/>
     <use xlink:href="#DejaVuSansMono-69" transform="translate(2950.048828 0)"/>
     <use xlink:href="#DejaVuSansMono-6e" transform="translate(3010.253906 0)"/>
     <use xlink:href="#DejaVuSansMono-65" transform="translate(3070.458984 0)"/>
     <use xlink:href="#DejaVuSansMono-64" transform="translate(3130.664062 0)"/>
    </g>
    <!-- (time-weighted means across active simulation window) -->
    <g transform="translate(152.540472 28.004437) scale(0.11 -0.11)">
     <defs>
      <path id="DejaVuSansMono-2d" d="M 1113 2009 
L 2741 2009 
L 2741 1497 
L 1113 1497 
L 1113 2009 
z
" transform="scale(0.015625)"/>
     </defs>
     <use xlink:href="#DejaVuSansMono-28"/>
     <use xlink:href="#DejaVuSansMono-74" transform="translate(60.205078 0)"/>
     <use xlink:href="#DejaVuSansMono-69" transform="translate(120.410156 0)"/>
     <use xlink:href="#DejaVuSansMono-6d" transform="translate(180.615234 0)"/>
     <use xlink:href="#DejaVuSansMono-65" transform="translate(240.820312 0)"/>
     <use xlink:href="#DejaVuSansMono-2d" transform="translate(301.025391 0)"/>
     <use xlink:href="#DejaVuSansMono-77" transform="translate(361.230469 0)"/>
     <use xlink:href="#DejaVuSansMono-65" transform="translate(421.435547 0)"/>
     <use xlink:href="#DejaVuSansMono-69" transform="translate(481.640625 0)"/>
     <use xlink:href="#DejaVuSansMono-67" transform="translate(541.845703 0)"/>
     <use xlink:href="#DejaVuSansMono-68" transform="translate(602.050781 0)"/>
     <use xlink:href="#DejaVuSansMono-74" transform="translate(662.255859 0)"/>
     <use xlink:href="#DejaVuSansMono-65" transform="translate(722.460938 0)"/>
     <use xlink:href="#DejaVuSansMono-64" transform="translate(782.666016 0)"/>
     <use xlink:href="#DejaVuSansMono-20" transform="translate(842.871094 0)"/>
     <use xlink:href="#DejaVuSansMono-6d" transform="translate(903.076172 0)"/>
     <use xlink:href="#DejaVuSansMono-65" transform="translate(963.28125 0)"/>
     <use xlink:href="#DejaVuSansMono-61" transform="translate(1023.486328 0)"/>
     <use xlink:href="#DejaVuSansMono-6e" transform="translate(1083.691406 0)"/>
     <use xlink:href="#DejaVuSansMono-73" transform="translate(1143.896484 0)"/>
     <use xlink:href="#DejaVuSansMono-20" transform="translate(1204.101562 0)"/>
     <use xlink:href="#DejaVuSansMono-61" transform="translate(1264.306641 0)"/>
     <use xlink:href="#DejaVuSansMono-63" transform="translate(1324.511719 0)"/>
     <use xlink:href="#DejaVuSansMono-72" transform="translate(1384.716797 0)"/>
     <use xlink:href="#DejaVuSansMono-6f" transform="translate(1444.921875 0)"/>
     <use xlink:href="#DejaVuSansMono-73" transform="translate(1505.126953 0)"/>
     <use xlink:href="#DejaVuSansMono-73" transform="translate(1565.332031 0)"/>
     <use xlink:href="#DejaVuSansMono-20" transform="translate(1625.537109 0)"/>
     <use xlink:href="#DejaVuSansMono-61" transform="translate(1685.742188 0)"/>
     <use xlink:href="#DejaVuSansMono-63" transform="translate(1745.947266 0)"/>
     <use xlink:href="#DejaVuSansMono-74" transform="translate(1806.152344 0)"/>
     <use xlink:href="#DejaVuSansMono-69" transform="translate(1866.357422 0)"/>
     <use xlink:href="#DejaVuSansMono-76" transform="translate(1926.5625 0)"/>
     <use xlink:href="#DejaVuSansMono-65" transform="translate(1986.767578 0)"/>
     <use xlink:href="#DejaVuSansMono-20" transform="translate(2046.972656 0)"/>
     <use xlink:href="#DejaVuSansMono-73" transform="translate(2107.177734 0)"/>
     <use xlink:href="#DejaVuSansMono-69" transform="translate(2167.382812 0)"/>
     <use xlink:href="#DejaVuSansMono-6d" transform="translate(2227.587891 0)"/>
     <use xlink:href="#DejaVuSansMono-75" transform="translate(2287.792969 0)"/>
     <use xlink:href="#DejaVuSansMono-6c" transform="translate(2347.998047 0)"/>
     <use xlink:href="#DejaVuSansMono-61" transform="translate(2408.203125 0)"/>
     <use xlink:href="#DejaVuSansMono-74" transform="translate(2468.408203 0)"/>
     <use xlink:href="#DejaVuSansMono-69" transform="translate(2528.613281 0)"/>
     <use xlink:href="#DejaVuSansMono-6f" transform="translate(2588.818359 0)"/>
     <use xlink:href="#DejaVuSansMono-6e" transform="translate(2649.023438 0)"/>
     <use xlink:href="#DejaVuSansMono-20" transform="translate(2709.228516 0)"/>
     <use xlink:href="#DejaVuSansMono-77" transform="translate(2769.433594 0)"/>
     <use xlink:href="#DejaVuSansMono-69" transform="translate(2829.638672 0)"/>
     <use xlink:href="#DejaVuSansMono-6e" transform="translate(2889.84375 0)"/>
     <use xlink:href="#DejaVuSansMono-64" transform="translate(2950.048828 0)"/>
     <use xlink:href="#DejaVuSansMono-6f" transform="translate(3010.253906 0)"/>
     <use xlink:href="#DejaVuSansMono-77" transform="translate(3070.458984 0)"/>
     <use xlink:href="#DejaVuSansMono-29" transform="translate(3130.664062 0)"/>
    </g>
   </g>
   <g id="legend_1">
    <g id="patch_15">
     <path d="M 53.31875 202.245906 
L 236.195937 202.245906 
Q 237.995937 202.245906 237.995937 200.445906 
L 237.995937 161.714969 
Q 237.995937 159.914969 236.195937 159.914969 
L 53.31875 159.914969 
Q 51.51875 159.914969 51.51875 161.714969 
L 51.51875 200.445906 
Q 51.51875 202.245906 53.31875 202.245906 
z
" style="fill: #ffffff; opacity: 0.8; stroke: #cccccc; stroke-linejoin: miter"/>
    </g>
    <g id="patch_16">
     <path d="M 55.11875 170.353563 
L 73.11875 170.353563 
L 73.11875 164.053562 
L 55.11875 164.053562 
z
" style="fill: #2c7bb6; opacity: 0.9"/>
    </g>
    <g id="text_22">
     <!-- % physical RAM allocated -->
     <g transform="translate(80.31875 170.353563) scale(0.09 -0.09)">
      <defs>
       <path id="DejaVuSans-70" d="M 1159 525 
L 1159 -1331 
L 581 -1331 
L 581 3500 
L 1159 3500 
L 1159 2969 
Q 1341 3281 1617 3432 
Q 1894 3584 2278 3584 
Q 2916 3584 3314 3078 
Q 3713 2572 3713 1747 
Q 3713 922 3314 415 
Q 2916 -91 2278 -91 
Q 1894 -91 1617 61 
Q 1341 213 1159 525 
z
M 3116 1747 
Q 3116 2381 2855 2742 
Q 2594 3103 2138 3103 
Q 1681 3103 1420 2742 
Q 1159 2381 1159 1747 
Q 1159 1113 1420 752 
Q 1681 391 2138 391 
Q 2594 391 2855 752 
Q 3116 1113 3116 1747 
z
" transform="scale(0.015625)"/>
       <path id="DejaVuSans-68" d="M 3513 2113 
L 3513 0 
L 2938 0 
L 2938 2094 
Q 2938 2591 2744 2837 
Q 2550 3084 2163 3084 
Q 1697 3084 1428 2787 
Q 1159 2491 1159 1978 
L 1159 0 
L 581 0 
L 581 4863 
L 1159 4863 
L 1159 2956 
Q 1366 3272 1645 3428 
Q 1925 3584 2291 3584 
Q 2894 3584 3203 3211 
Q 3513 2838 3513 2113 
z
" transform="scale(0.015625)"/>
       <path id="DejaVuSans-52" d="M 2841 2188 
Q 3044 2119 3236 1894 
Q 3428 1669 3622 1275 
L 4263 0 
L 3584 0 
L 2988 1197 
Q 2756 1666 2539 1819 
Q 2322 1972 1947 1972 
L 1259 1972 
L 1259 0 
L 628 0 
L 628 4666 
L 2053 4666 
Q 2853 4666 3247 4331 
Q 3641 3997 3641 3322 
Q 3641 2881 3436 2590 
Q 3231 2300 2841 2188 
z
M 1259 4147 
L 1259 2491 
L 2053 2491 
Q 2509 2491 2742 2702 
Q 2975 2913 2975 3322 
Q 2975 3731 2742 3939 
Q 2509 4147 2053 4147 
L 1259 4147 
z
" transform="scale(0.015625)"/>
       <path id="DejaVuSans-41" d="M 2188 4044 
L 1331 1722 
L 3047 1722 
L 2188 4044 
z
M 1831 4666 
L 2547 4666 
L 4325 0 
L 3669 0 
L 3244 1197 
L 1141 1197 
L 716 0 
L 50 0 
L 1831 4666 
z
" transform="scale(0.015625)"/>
       <path id="DejaVuSans-4d" d="M 628 4666 
L 1569 4666 
L 2759 1491 
L 3956 4666 
L 4897 4666 
L 4897 0 
L 4281 0 
L 4281 4097 
L 3078 897 
L 2444 897 
L 1241 4097 
L 1241 0 
L 628 0 
L 628 4666 
z
" transform="scale(0.015625)"/>
      </defs>
      <use xlink:href="#DejaVuSans-25"/>
      <use xlink:href="#DejaVuSans-20" transform="translate(95.019531 0)"/>
      <use xlink:href="#DejaVuSans-70" transform="translate(126.806641 0)"/>
      <use xlink:href="#DejaVuSans-68" transform="translate(190.283203 0)"/>
      <use xlink:href="#DejaVuSans-79" transform="translate(253.662109 0)"/>
      <use xlink:href="#DejaVuSans-73" transform="translate(312.841797 0)"/>
      <use xlink:href="#DejaVuSans-69" transform="translate(364.941406 0)"/>
      <use xlink:href="#DejaVuSans-63" transform="translate(392.724609 0)"/>
      <use xlink:href="#DejaVuSans-61" transform="translate(447.705078 0)"/>
      <use xlink:href="#DejaVuSans-6c" transform="translate(508.984375 0)"/>
      <use xlink:href="#DejaVuSans-20" transform="translate(536.767578 0)"/>
      <use xlink:href="#DejaVuSans-52" transform="translate(568.554688 0)"/>
      <use xlink:href="#DejaVuSans-41" transform="translate(634.037109 0)"/>
      <use xlink:href="#DejaVuSans-4d" transform="translate(702.445312 0)"/>
      <use xlink:href="#DejaVuSans-20" transform="translate(788.724609 0)"/>
      <use xlink:href="#DejaVuSans-61" transform="translate(820.511719 0)"/>
      <use xlink:href="#DejaVuSans-6c" transform="translate(881.791016 0)"/>
      <use xlink:href="#DejaVuSans-6c" transform="translate(909.574219 0)"/>
      <use xlink:href="#DejaVuSans-6f" transform="translate(937.357422 0)"/>
      <use xlink:href="#DejaVuSans-63" transform="translate(998.539062 0)"/>
      <use xlink:href="#DejaVuSans-61" transform="translate(1053.519531 0)"/>
      <use xlink:href="#DejaVuSans-74" transform="translate(1114.798828 0)"/>
      <use xlink:href="#DejaVuSans-65" transform="translate(1154.007812 0)"/>
      <use xlink:href="#DejaVuSans-64" transform="translate(1215.53125 0)"/>
     </g>
    </g>
    <g id="patch_17">
     <path d="M 55.11875 183.563875 
L 73.11875 183.563875 
L 73.11875 177.263875 
L 55.11875 177.263875 
z
" style="fill: #2c7bb6; opacity: 0.55"/>
    </g>
    <g id="text_23">
     <!-- % allocated RAM utilized (≤100%) -->
     <g transform="translate(80.31875 183.563875) scale(0.09 -0.09)">
      <defs>
       <path id="DejaVuSans-7a" d="M 353 3500 
L 3084 3500 
L 3084 2975 
L 922 459 
L 3084 459 
L 3084 0 
L 275 0 
L 275 525 
L 2438 3041 
L 353 3041 
L 353 3500 
z
" transform="scale(0.015625)"/>
       <path id="DejaVuSans-2264" d="M 4684 3175 
L 1684 2309 
L 4684 1453 
L 4684 897 
L 678 2047 
L 678 2578 
L 4684 3725 
L 4684 3175 
z
M 678 531 
L 4684 531 
L 4684 0 
L 678 0 
L 678 531 
z
" transform="scale(0.015625)"/>
      </defs>
      <use xlink:href="#DejaVuSans-25"/>
      <use xlink:href="#DejaVuSans-20" transform="translate(95.019531 0)"/>
      <use xlink:href="#DejaVuSans-61" transform="translate(126.806641 0)"/>
      <use xlink:href="#DejaVuSans-6c" transform="translate(188.085938 0)"/>
      <use xlink:href="#DejaVuSans-6c" transform="translate(215.869141 0)"/>
      <use xlink:href="#DejaVuSans-6f" transform="translate(243.652344 0)"/>
      <use xlink:href="#DejaVuSans-63" transform="translate(304.833984 0)"/>
      <use xlink:href="#DejaVuSans-61" transform="translate(359.814453 0)"/>
      <use xlink:href="#DejaVuSans-74" transform="translate(421.09375 0)"/>
      <use xlink:href="#DejaVuSans-65" transform="translate(460.302734 0)"/>
      <use xlink:href="#DejaVuSans-64" transform="translate(521.826172 0)"/>
      <use xlink:href="#DejaVuSans-20" transform="translate(585.302734 0)"/>
      <use xlink:href="#DejaVuSans-52" transform="translate(617.089844 0)"/>
      <use xlink:href="#DejaVuSans-41" transform="translate(682.572266 0)"/>
      <use xlink:href="#DejaVuSans-4d" transform="translate(750.980469 0)"/>
      <use xlink:href="#DejaVuSans-20" transform="translate(837.259766 0)"/>
      <use xlink:href="#DejaVuSans-75" transform="translate(869.046875 0)"/>
      <use xlink:href="#DejaVuSans-74" transform="translate(932.425781 0)"/>
      <use xlink:href="#DejaVuSans-69" transform="translate(971.634766 0)"/>
      <use xlink:href="#DejaVuSans-6c" transform="translate(999.417969 0)"/>
      <use xlink:href="#DejaVuSans-69" transform="translate(1027.201172 0)"/>
      <use xlink:href="#DejaVuSans-7a" transform="translate(1054.984375 0)"/>
      <use xlink:href="#DejaVuSans-65" transform="translate(1107.474609 0)"/>
      <use xlink:href="#DejaVuSans-64" transform="translate(1168.998047 0)"/>
      <use xlink:href="#DejaVuSans-20" transform="translate(1232.474609 0)"/>
      <use xlink:href="#DejaVuSans-28" transform="translate(1264.261719 0)"/>
      <use xlink:href="#DejaVuSans-2264" transform="translate(1303.275391 0)"/>
      <use xlink:href="#DejaVuSans-31" transform="translate(1387.064453 0)"/>
      <use xlink:href="#DejaVuSans-30" transform="translate(1450.6875 0)"/>
      <use xlink:href="#DejaVuSans-30" transform="translate(1514.310547 0)"/>
      <use xlink:href="#DejaVuSans-25" transform="translate(1577.933594 0)"/>
      <use xlink:href="#DejaVuSans-29" transform="translate(1672.953125 0)"/>
     </g>
    </g>
    <g id="patch_18">
     <path d="M 55.11875 196.774188 
L 73.11875 196.774188 
L 73.11875 190.474187 
L 55.11875 190.474187 
z
" style="fill: #2c7bb6; opacity: 0.35"/>
    </g>
    <g id="text_24">
     <!-- Combined efficiency (A×B/100) -->
     <g transform="translate(80.31875 196.774188) scale(0.09 -0.09)">
      <defs>
       <path id="DejaVuSans-43" d="M 4122 4306 
L 4122 3641 
Q 3803 3938 3442 4084 
Q 3081 4231 2675 4231 
Q 1875 4231 1450 3742 
Q 1025 3253 1025 2328 
Q 1025 1406 1450 917 
Q 1875 428 2675 428 
Q 3081 428 3442 575 
Q 3803 722 4122 1019 
L 4122 359 
Q 3791 134 3420 21 
Q 3050 -91 2638 -91 
Q 1578 -91 968 557 
Q 359 1206 359 2328 
Q 359 3453 968 4101 
Q 1578 4750 2638 4750 
Q 3056 4750 3426 4639 
Q 3797 4528 4122 4306 
z
" transform="scale(0.015625)"/>
       <path id="DejaVuSans-d7" d="M 4488 3438 
L 3059 2003 
L 4488 575 
L 4116 197 
L 2681 1631 
L 1247 197 
L 878 575 
L 2303 2003 
L 878 3438 
L 1247 3816 
L 2681 2381 
L 4116 3816 
L 4488 3438 
z
" transform="scale(0.015625)"/>
       <path id="DejaVuSans-42" d="M 1259 2228 
L 1259 519 
L 2272 519 
Q 2781 519 3026 730 
Q 3272 941 3272 1375 
Q 3272 1813 3026 2020 
Q 2781 2228 2272 2228 
L 1259 2228 
z
M 1259 4147 
L 1259 2741 
L 2194 2741 
Q 2656 2741 2882 2914 
Q 3109 3088 3109 3444 
Q 3109 3797 2882 3972 
Q 2656 4147 2194 4147 
L 1259 4147 
z
M 628 4666 
L 2241 4666 
Q 2963 4666 3353 4366 
Q 3744 4066 3744 3513 
Q 3744 3084 3544 2831 
Q 3344 2578 2956 2516 
Q 3422 2416 3680 2098 
Q 3938 1781 3938 1306 
Q 3938 681 3513 340 
Q 3088 0 2303 0 
L 628 0 
L 628 4666 
z
" transform="scale(0.015625)"/>
       <path id="DejaVuSans-2f" d="M 1625 4666 
L 2156 4666 
L 531 -594 
L 0 -594 
L 1625 4666 
z
" transform="scale(0.015625)"/>
      </defs>
      <use xlink:href="#DejaVuSans-43"/>
      <use xlink:href="#DejaVuSans-6f" transform="translate(69.824219 0)"/>
      <use xlink:href="#DejaVuSans-6d" transform="translate(131.005859 0)"/>
      <use xlink:href="#DejaVuSans-62" transform="translate(228.417969 0)"/>
      <use xlink:href="#DejaVuSans-69" transform="translate(291.894531 0)"/>
      <use xlink:href="#DejaVuSans-6e" transform="translate(319.677734 0)"/>
      <use xlink:href="#DejaVuSans-65" transform="translate(383.056641 0)"/>
      <use xlink:href="#DejaVuSans-64" transform="translate(444.580078 0)"/>
      <use xlink:href="#DejaVuSans-20" transform="translate(508.056641 0)"/>
      <use xlink:href="#DejaVuSans-65" transform="translate(539.84375 0)"/>
      <use xlink:href="#DejaVuSans-66" transform="translate(601.367188 0)"/>
      <use xlink:href="#DejaVuSans-66" transform="translate(636.572266 0)"/>
      <use xlink:href="#DejaVuSans-69" transform="translate(671.777344 0)"/>
      <use xlink:href="#DejaVuSans-63" transform="translate(699.560547 0)"/>
      <use xlink:href="#DejaVuSans-69" transform="translate(754.541016 0)"/>
      <use xlink:href="#DejaVuSans-65" transform="translate(782.324219 0)"/>
      <use xlink:href="#DejaVuSans-6e" transform="translate(843.847656 0)"/>
      <use xlink:href="#DejaVuSans-63" transform="translate(907.226562 0)"/>
      <use xlink:href="#DejaVuSans-79" transform="translate(962.207031 0)"/>
      <use xlink:href="#DejaVuSans-20" transform="translate(1021.386719 0)"/>
      <use xlink:href="#DejaVuSans-28" transform="translate(1053.173828 0)"/>
      <use xlink:href="#DejaVuSans-41" transform="translate(1092.1875 0)"/>
      <use xlink:href="#DejaVuSans-d7" transform="translate(1160.595703 0)"/>
      <use xlink:href="#DejaVuSans-42" transform="translate(1244.384766 0)"/>
      <use xlink:href="#DejaVuSans-2f" transform="translate(1312.988281 0)"/>
      <use xlink:href="#DejaVuSans-31" transform="translate(1346.679688 0)"/>
      <use xlink:href="#DejaVuSans-30" transform="translate(1410.302734 0)"/>
      <use xlink:href="#DejaVuSans-30" transform="translate(1473.925781 0)"/>
      <use xlink:href="#DejaVuSans-29" transform="translate(1537.548828 0)"/>
     </g>
    </g>
   </g>
  </g>
 </g>
 <defs>
  <clipPath id="p8b964b0aa9">
   <rect x="47.01875" y="34.004437" width="562.027662" height="294.152"/>
  </clipPath>
 </defs>
</svg>
